{
.appVersion = "3236";
.formatVersion = 3;
customParameters = (
{
name = panose;
value = (
0,
0,
0,
0,
0,
0,
0,
0,
0,
0
);
},
{
name = unicodeRanges;
value = (
0,
1
);
},
{
name = blueScale;
value = 0.0370000004768;
},
{
name = blueShift;
value = 4;
},
{
name = glyphOrder;
value = (
.notdef,
space,
A,
B,
C,
D,
E,
F,
G,
H,
I,
J,
K,
L,
M,
N,
O,
P,
Q,
R,
S,
T,
U,
V,
W,
X,
Y,
Z,
a,
b,
c,
d,
e,
f,
g,
h,
i,
j,
k,
l,
m,
n,
o,
p,
q,
r,
s,
t,
u,
v,
w,
x,
y,
z,
zero,
one,
two,
three,
four,
five,
six,
seven,
eight,
nine,
period,
comma,
hyphen
);
}
);
date = "2024-02-09 21:30:07 +0000";
familyName = Typeople;
featurePrefixes = (
{
automatic = 1;
code = "languagesystem DFLT dflt;
";
name = Languagesystems;
}
);
fontMaster = (
{
customParameters = (
{
name = typoAscender;
value = 620;
},
{
name = typoDescender;
value = 0;
},
{
name = typoLineGap;
value = 100;
},
{
name = winAscent;
value = 620;
},
{
name = winDescent;
value = 0;
},
{
name = hheaAscender;
value = 620;
},
{
name = hheaDescender;
value = 0;
},
{
name = strikeoutPosition;
value = 100;
},
{
name = strikeoutSize;
value = 0;
},
{
name = underlinePosition;
value = 0;
},
{
name = underlineThickness;
value = 50;
}
);
id = m01;
metricValues = (
{
pos = 620;
},
{
pos = 400;
},
{
pos = 200;
},
{
},
{
},
{
}
);
name = Geos;
}
);
glyphs = (
{
glyphname = .notdef;
lastChange = "2024-02-08 18:15:48 +0000";
layers = (
{
hints = (
{
horizontal = 1;
place = (513,37);
type = Stem;
},
{
horizontal = 1;
place = (475,20);
type = Stem;
},
{
horizontal = 1;
place = (442,15);
type = Stem;
},
{
horizontal = 1;
place = (404,20);
type = Stem;
},
{
horizontal = 1;
place = (370,15);
type = Stem;
},
{
horizontal = 1;
place = (337,15);
type = Stem;
},
{
horizontal = 1;
place = (332,20);
type = Stem;
},
{
horizontal = 1;
place = (301,13);
type = Stem;
},
{
horizontal = 1;
place = (270,12);
type = Stem;
},
{
horizontal = 1;
place = (226,13);
type = Stem;
},
{
horizontal = 1;
place = (175,33);
type = Stem;
},
{
horizontal = 1;
place = (131,26);
type = Stem;
},
{
horizontal = 1;
place = (100,13);
type = Stem;
},
{
horizontal = 1;
place = (56,26);
type = Stem;
},
{
horizontal = 1;
place = (0,38);
type = Stem;
},
{
place = (183,43);
type = Stem;
},
{
place = (147,18);
type = Stem;
},
{
place = (110,116);
type = Stem;
},
{
place = (110,18);
type = Stem;
},
{
place = (51,114);
type = Stem;
},
{
place = (51,77);
type = Stem;
},
{
place = (51,41);
type = Stem;
}
);
layerId = m01;
shapes = (
{
closed = 1;
nodes = (
(226,0,l),
(226,550,l),
(51,550,l),
(51,0,l)
);
},
{
closed = 1;
nodes = (
(92,56,l),
(130,82,l),
(92,82,l),
(92,100,l),
(183,100,l),
(183,82,l),
(166,82,l),
(127,56,l),
(183,56,l),
(183,38,l),
(92,38,l)
);
},
{
closed = 1;
nodes = (
(92,175,l),
(183,175,l),
(183,113,l),
(92,113,l)
);
},
{
closed = 1;
nodes = (
(165,131,l),
(165,157,l),
(110,157,l),
(110,131,l)
);
},
{
closed = 1;
nodes = (
(92,270,l),
(110,270,l),
(110,226,l),
(165,226,l),
(165,252,l),
(147,252,l),
(147,239,l),
(128,239,l),
(128,270,l),
(183,270,l),
(183,208,l),
(92,208,l)
);
},
{
closed = 1;
nodes = (
(92,301,l),
(165,301,l),
(165,337,l),
(183,337,l),
(183,282,l),
(92,282,l)
);
},
{
closed = 1;
nodes = (
(92,332,l),
(128,332,l),
(128,352,l),
(92,352,l),
(92,370,l),
(183,370,l),
(183,352,l),
(147,352,l),
(147,314,l),
(92,314,l)
);
},
{
closed = 1;
nodes = (
(128,404,l),
(128,424,l),
(110,424,l),
(110,404,l)
);
},
{
closed = 1;
nodes = (
(92,442,l),
(147,442,l),
(147,404,l),
(183,404,l),
(183,385,l),
(92,385,l)
);
},
{
closed = 1;
nodes = (
(92,475,l),
(128,475,l),
(128,495,l),
(92,495,l),
(92,513,l),
(183,513,l),
(183,495,l),
(147,495,l),
(147,475,l),
(183,475,l),
(183,457,l),
(92,457,l)
);
}
);
width = 275;
}
);
note = .notdef;
},
{
glyphname = A;
lastChange = "2024-02-08 19:36:18 +0000";
layers = (
{
hints = (
{
horizontal = 1;
place = (365,35);
type = Stem;
},
{
horizontal = 1;
place = (364,36);
type = Stem;
},
{
horizontal = 1;
place = (229,35);
type = Stem;
},
{
horizontal = 1;
place = (228,35);
type = Stem;
},
{
horizontal = 1;
place = (200,200);
type = Stem;
},
{
horizontal = 1;
place = (200,64);
type = Stem;
},
{
horizontal = 1;
place = (200,63);
type = Stem;
},
{
place = (-74,150);
type = Stem;
}
);
layerId = m01;
shapes = (
{
closed = 1;
nodes = (
(76,200,l),
(76,233,l),
(79,230,o),
(83,229,o),
(87,229,cs),
(96,229,o),
(104,237,o),
(104,247,cs),
(104,256,o),
(96,264,o),
(87,264,cs),
(84,264,o),
(82,264,o),
(80,263,c),
(146,329,l),
(76,400,l),
(-74,400,l),
(-145,329,l),
(-78,262,l),
(-80,263,o),
(-82,263,o),
(-83,263,cs),
(-93,263,o),
(-101,255,o),
(-101,246,cs),
(-101,236,o),
(-93,228,o),
(-83,228,cs),
(-80,228,o),
(-77,229,o),
(-74,231,c),
(-74,200,l)
);
},
{
closed = 1;
nodes = (
(-110,329,l),
(-74,365,l),
(-74,294,l)
);
},
{
closed = 1;
nodes = (
(76,364,l),
(111,329,l),
(76,294,l)
);
}
);
width = 1;
}
);
note = B;
unicode = 65;
},
{
glyphname = B;
lastChange = "2024-02-08 20:05:43 +0000";
layers = (
{
hints = (
{
horizontal = 1;
place = (0,25);
type = Stem;
},
{
place = (5,25);
type = Stem;
},
{
place = (-30,25);
type = Stem;
}
);
layerId = m01;
shapes = (
{
closed = 1;
nodes = (
(55,0,l),
(55,25,l),
(30,25,l),
(30,200,l),
(5,200,l),
(5,0,l)
);
},
{
closed = 1;
nodes = (
(-5,0,l),
(-5,200,l),
(-30,200,l),
(-30,25,l),
(-55,25,l),
(-55,0,l)
);
}
);
width = 0;
}
);
note = O;
unicode = 66;
},
{
glyphname = C;
lastChange = "2024-02-08 20:03:57 +0000";
layers = (
{
hints = (
{
horizontal = 1;
place = (184,27);
type = Stem;
},
{
horizontal = 1;
place = (12,13);
type = Stem;
},
{
horizontal = 1;
place = (0,25);
type = Stem;
},
{
place = (-16,64);
type = Stem;
},
{
place = (-88,51);
type = Stem;
}
);
layerId = m01;
shapes = (
{
closed = 1;
nodes = (
(-37,0,l),
(-37,25,l),
(-52,25,l),
(29,105,l),
(-50,184,l),
(-30,184,l),
(49,105,l),
(-30,26,l),
(-16,12,l),
(-16,0,l),
(48,0,l),
(48,25,l),
(21,25,l),
(102,105,l),
(-4,211,l),
(-103,211,l),
(-103,184,l),
(-24,105,l),
(-103,26,l),
(-88,11,l),
(-88,0,l)
);
}
);
width = 0;
}
);
note = I;
unicode = 67;
},
{
glyphname = D;
lastChange = "2024-02-08 19:40:02 +0000";
layers = (
{
hints = (
{
horizontal = 1;
place = (477,125);
type = Stem;
},
{
horizontal = 1;
place = (355,45);
type = Stem;
},
{
horizontal = 1;
place = (337,63);
type = Stem;
},
{
horizontal = 1;
place = (333,35);
type = Stem;
},
{
horizontal = 1;
place = (200,200);
type = Stem;
},
{
place = (156,35);
type = Stem;
},
{
place = (156,9);
type = Stem;
},
{
place = (151,126);
type = Stem;
},
{
place = (-277,34);
type = Stem;
}
);
layerId = m01;
shapes = (
{
closed = 1;
nodes = (
(30,200,l),
(37,337,l),
(177,442,l),
(165,458,l),
(167,456,o),
(170,456,o),
(174,456,cs),
(183,456,o),
(191,463,o),
(191,473,cs),
(191,476,o),
(190,479,o),
(189,482,c),
(197,478,o),
(205,477,o),
(214,477,cs),
(249,477,o),
(277,505,o),
(277,539,cs),
(277,574,o),
(249,602,o),
(214,602,cs),
(179,602,o),
(151,574,o),
(151,539,cs),
(151,520,o),
(160,502,o),
(174,491,cs),
(172,493,o),
(156,486,o),
(156,473,cs),
(156,472,o),
(156,470,o),
(157,469,cs),
(153,474,l),
(39,390,l),
(40,400,l),
(-70,400,l),
(-243,358,l),
(-246,364,o),
(-252,368,o),
(-259,368,cs),
(-269,368,o),
(-277,360,o),
(-277,351,cs),
(-277,341,o),
(-269,333,o),
(-259,333,cs),
(-254,333,o),
(-249,336,o),
(-246,339,c),
(-240,317,l),
(-81,355,l),
(-120,200,l)
);
}
);
width = 0;
}
);
note = H;
unicode = 68;
},
{
glyphname = E;
lastChange = "2024-02-08 18:25:32 +0000";
layers = (
{
hints = (
{
horizontal = 1;
place = (541,57);
type = Stem;
},
{
horizontal = 1;
place = (523,75);
type = Stem;
},
{
horizontal = 1;
place = (448,50);
type = Stem;
},
{
horizontal = 1;
place = (397,53);
type = Stem;
},
{
place = (49,25);
type = Stem;
},
{
place = (-14,53);
type = Stem;
},
{
place = (-24,48);
type = Stem;
},
{
place = (-42,139);
type = Stem;
},
{
place = (-42,66);
type = Stem;
}
);
layerId = m01;
shapes = (
{
closed = 1;
nodes = (
(27,397,o),
(39,409,o),
(39,424,cs),
(39,434,o),
(34,442,o),
(26,447,c),
(29,447,o),
(33,448,o),
(37,448,c),
(59,454,o),
(74,475,o),
(74,497,c),
(100,504,l),
(94,528,l),
(69,520,l),
(65,528,o),
(59,534,o),
(52,539,c),
(63,543,l),
(54,566,ls),
(44,592,o),
(15,605,o),
(-11,595,cs),
(-37,585,o),
(-49,556,o),
(-39,530,c),
(-100,507,l),
(-91,483,l),
(-24,509,l),
(-26,501,o),
(-26,493,o),
(-24,485,cs),
(-20,468,o),
(-8,456,o),
(7,450,c),
(-5,448,o),
(-14,437,o),
(-14,424,cs),
(-14,409,o),
(-2,397,o),
(12,397,cs)
);
},
{
closed = 1;
nodes = (
(30,498,o),
(24,504,o),
(24,511,cs),
(24,517,o),
(30,523,o),
(36,523,cs),
(43,523,o),
(49,517,o),
(49,511,cs),
(49,504,o),
(43,498,o),
(36,498,cs)
);
}
);
width = 0;
}
);
note = G;
unicode = 69;
},
{
glyphname = F;
lastChange = "2024-02-08 19:41:27 +0000";
layers = (
{
hints = (
{
horizontal = 1;
place = (378,22);
type = Stem;
},
{
horizontal = 1;
place = (377,23);
type = Stem;
},
{
horizontal = 1;
place = (373,27);
type = Stem;
},
{
horizontal = 1;
place = (326,22);
type = Stem;
},
{
horizontal = 1;
place = (229,35);
type = Stem;
},
{
horizontal = 1;
place = (57,207);
type = Stem;
},
{
place = (-71.49,142);
type = Stem;
},
{
place = (-71.49,58.5);
type = Stem;
},
{
place = (-150,300);
type = Stem;
}
);
layerId = m01;
shapes = (
{
closed = 1;
nodes = (
(100,57,l),
(81,231,l),
(84,230,o),
(87,229,o),
(90,229,cs),
(100,229,o),
(108,237,o),
(108,247,cs),
(108,256,o),
(100,264,o),
(90,264,cs),
(88,264,o),
(85,264,o),
(83,263,c),
(150,329,l),
(79,400,l),
(-79,400,l),
(-150,329,l),
(-83,263,l),
(-85,264,o),
(-88,264,o),
(-90,264,cs),
(-100,264,o),
(-108,256,o),
(-108,247,cs),
(-108,237,o),
(-100,229,o),
(-90,229,cs),
(-87,229,o),
(-85,230,o),
(-82,231,c),
(-100,57,l)
);
},
{
closed = 1;
nodes = (
(-115,329,l),
(-67,377,l),
(-76,291,l)
);
},
{
closed = 1;
nodes = (
(-7,301,o),
(-13,307,o),
(-13,314,cs),
(-13,320,o),
(-7,326,o),
(0,326,cs),
(6,326,o),
(12,320,o),
(12,314,cs),
(12,307,o),
(6,301,o),
(0,301,cs)
);
},
{
closed = 1;
nodes = (
(-7,348,o),
(-13,354,o),
(-13,361,cs),
(-13,367,o),
(-7,373,o),
(0,373,cs),
(6,373,o),
(12,367,o),
(12,361,cs),
(12,354,o),
(6,348,o),
(0,348,cs)
);
},
{
closed = 1;
nodes = (
(66,378,l),
(115,329,l),
(75,290,l)
);
}
);
width = 0;
}
);
note = K;
unicode = 70;
},
{
glyphname = G;
lastChange = "2024-02-08 19:42:20 +0000";
layers = (
{
hints = (
{
horizontal = 1;
place = (300,141);
type = Stem;
},
{
horizontal = 1;
place = (300,100);
type = Stem;
},
{
horizontal = 1;
place = (229,35);
type = Stem;
},
{
horizontal = 1;
place = (200,100);
type = Stem;
},
{
place = (-35,66);
type = Stem;
},
{
place = (-113,25);
type = Stem;
}
);
layerId = m01;
shapes = (
{
closed = 1;
nodes = (
(23,200,ls),
(46,200,o),
(65,215,o),
(71,236,c),
(74,232,o),
(79,229,o),
(85,229,cs),
(94,229,o),
(102,237,o),
(102,247,cs),
(102,256,o),
(94,264,o),
(85,264,cs),
(82,264,o),
(80,264,o),
(78,263,c),
(144,329,l),
(127,347,l),
(74,400,l),
(59,385,l),
(50,394,o),
(37,400,o),
(23,400,cs),
(20,400,l),
(27,404,o),
(31,411,o),
(31,419,cs),
(31,431,o),
(21,441,o),
(9,441,cs),
(-13,441,ls),
(-25,441,o),
(-35,431,o),
(-35,419,cs),
(-35,411,o),
(-31,404,o),
(-24,400,c),
(-27,400,ls),
(-43,400,o),
(-57,393,o),
(-66,382,c),
(-63,393,l),
(-87,399,l),
(-113,302,l),
(-113,240,l),
(-118,237,o),
(-121,232,o),
(-121,226,cs),
(-121,216,o),
(-113,208,o),
(-103,208,cs),
(-94,208,o),
(-86,216,o),
(-86,226,cs),
(-86,231,o),
(-89,236,o),
(-93,239,c),
(-88,239,l),
(-88,298,l),
(-76,342,l),
(-72,318,o),
(-52,300,o),
(-27,300,cs),
(-55,300,o),
(-77,278,o),
(-77,250,cs),
(-77,222,o),
(-55,200,o),
(-27,200,cs)
);
},
{
closed = 1;
nodes = (
(52,293,o),
(39,300,o),
(23,300,cs),
(51,300,o),
(73,322,o),
(73,350,cs),
(73,357,o),
(72,363,o),
(69,369,c),
(109,329,l),
(62,282,l)
);
}
);
width = 0;
}
);
note = N;
unicode = 71;
},
{
glyphname = H;
lastChange = "2024-02-08 19:43:11 +0000";
layers = (
{
hints = (
{
horizontal = 1;
place = (343,57);
type = Stem;
},
{
horizontal = 1;
place = (300,100);
type = Stem;
},
{
horizontal = 1;
place = (276,14);
type = Stem;
},
{
horizontal = 1;
place = (266,7);
type = Stem;
},
{
horizontal = 1;
place = (200,100);
type = Stem;
},
{
horizontal = 1;
place = (146,113);
type = Stem;
},
{
horizontal = 1;
place = (145,25);
type = Stem;
},
{
horizontal = 1;
place = (145,8);
type = Stem;
},
{
horizontal = 1;
place = (144,11);
type = Stem;
},
{
horizontal = 1;
place = (120,11);
type = Stem;
},
{
horizontal = 1;
place = (82,25);
type = Stem;
},
{
horizontal = 1;
place = (16,27);
type = Stem;
},
{
horizontal = 1;
place = (0,16);
type = Stem;
},
{
place = (153,13);
type = Stem;
},
{
place = (104,13);
type = Stem;
},
{
place = (72,16);
type = Stem;
},
{
place = (-20,66);
type = Stem;
},
{
place = (-62,150);
type = Stem;
},
{
place = (-120,11);
type = Stem;
},
{
place = (-125,13);
type = Stem;
},
{
place = (-140,41);
type = Stem;
},
{
place = (-166,10);
type = Stem;
},
{
place = (-174,25);
type = Stem;
},
{
place = (-181,25);
type = Stem;
},
{
place = (-182,41);
type = Stem;
},
{
place = (-187,12);
type = Stem;
},
{
place = (-200,25);
type = Stem;
}
);
layerId = m01;
shapes = (
{
closed = 1;
nodes = (
(-157,0,ls),
(-153,0,o),
(-149,4,o),
(-149,8,cs),
(-149,11,o),
(-151,14,o),
(-154,16,c),
(-147,16,o),
(-141,22,o),
(-141,29,cs),
(-141,33,o),
(-143,37,o),
(-146,39,c),
(-135,39,l),
(-138,37,o),
(-140,33,o),
(-140,29,cs),
(-140,22,o),
(-134,16,o),
(-127,16,c),
(-130,14,o),
(-132,11,o),
(-132,8,cs),
(-132,4,o),
(-128,0,o),
(-124,0,cs),
(-115,0,ls),
(-111,0,o),
(-107,4,o),
(-107,8,cs),
(-107,11,o),
(-109,14,o),
(-112,16,c),
(-105,16,o),
(-99,22,o),
(-99,29,cs),
(-99,36,o),
(-104,42,o),
(-111,43,c),
(-101,48,o),
(-94,58,o),
(-94,70,cs),
(-94,85,o),
(-105,98,o),
(-120,100,c),
(-114,105,o),
(-110,112,o),
(-109,120,c),
(-104,120,ls),
(-101,120,o),
(-99,122,o),
(-99,125,cs),
(-99,128,o),
(-101,131,o),
(-104,131,cs),
(-109,131,l),
(-111,142,o),
(-118,151,o),
(-129,155,c),
(-123,156,o),
(-119,161,o),
(-119,167,cs),
(-119,174,o),
(-125,180,o),
(-132,180,cs),
(-133,180,o),
(-134,179,o),
(-135,179,c),
(-126,239,l),
(-121,239,o),
(-117,242,o),
(-115,246,c),
(-110,252,o),
(-111,261,o),
(-115,266,c),
(-110,263,l),
(-62,334,l),
(-62,300,l),
(-12,300,ls),
(-40,300,o),
(-62,278,o),
(-62,250,cs),
(-62,222,o),
(-40,200,o),
(-12,200,cs),
(38,200,ls),
(52,200,o),
(64,206,o),
(73,214,c),
(72,211,o),
(72,207,o),
(72,203,cs),
(72,171,o),
(97,146,o),
(128,146,cs),
(142,146,ls),
(174,146,o),
(199,171,o),
(199,203,cs),
(199,225,o),
(185,245,o),
(166,254,c),
(166,290,l),
(151,290,l),
(148,295,l),
(160,307,l),
(88,379,l),
(88,400,l),
(35,400,l),
(42,404,o),
(46,411,o),
(46,419,cs),
(46,431,o),
(36,441,o),
(24,441,cs),
(2,441,ls),
(-10,441,o),
(-20,431,o),
(-20,419,cs),
(-20,411,o),
(-16,404,o),
(-9,400,c),
(-62,400,l),
(-62,379,l),
(-130,276,l),
(-125,273,l),
(-132,274,o),
(-140,272,o),
(-144,265,cs),
(-149,257,o),
(-147,246,o),
(-139,241,cs),
(-138,240,o),
(-137,240,o),
(-136,239,c),
(-148,156,l),
(-151,156,o),
(-154,155,o),
(-156,153,c),
(-156,157,ls),
(-156,164,o),
(-161,170,o),
(-168,170,cs),
(-175,170,o),
(-181,164,o),
(-181,157,cs),
(-181,150,o),
(-175,145,o),
(-168,145,cs),
(-166,145,l),
(-170,139,o),
(-173,132,o),
(-173,125,cs),
(-173,115,o),
(-168,106,o),
(-161,100,c),
(-166,99,o),
(-171,97,o),
(-175,94,c),
(-175,95,ls),
(-175,101,o),
(-180,107,o),
(-187,107,cs),
(-194,107,o),
(-200,101,o),
(-200,95,cs),
(-200,88,o),
(-194,82,o),
(-187,82,cs),
(-186,82,o),
(-185,82,o),
(-184,83,c),
(-186,79,o),
(-187,75,o),
(-187,70,cs),
(-187,58,o),
(-180,48,o),
(-170,43,c),
(-177,42,o),
(-182,36,o),
(-182,29,cs),
(-182,22,o),
(-176,16,o),
(-169,16,c),
(-172,14,o),
(-174,11,o),
(-174,8,cs),
(-174,4,o),
(-170,0,o),
(-166,0,cs)
);
},
{
closed = 1;
nodes = (
(-131,131,o),
(-134,134,o),
(-134,138,cs),
(-134,141,o),
(-131,144,o),
(-127,144,cs),
(-123,144,o),
(-120,141,o),
(-120,138,cs),
(-120,134,o),
(-123,131,o),
(-127,131,cs)
);
},
{
closed = 1;
nodes = (
(88,244,o),
(88,247,o),
(88,250,cs),
(88,278,o),
(66,300,o),
(38,300,cs),
(88,300,l),
(88,343,l),
(132,300,l),
(126,298,o),
(122,295,o),
(120,290,c),
(104,290,l),
(104,253,l),
(98,250,o),
(92,246,o),
(87,241,c)
);
},
{
closed = 1;
nodes = (
(117,276,l),
(119,276,l),
(122,270,o),
(128,265,o),
(135,265,cs),
(143,265,o),
(149,270,o),
(152,276,c),
(153,276,l),
(153,258,l),
(149,259,o),
(146,259,o),
(142,259,cs),
(128,259,ls),
(124,259,o),
(121,259,o),
(117,258,c)
);
}
);
width = 0;
}
);
note = Q;
unicode = 72;
},
{
glyphname = I;
lastChange = "2024-02-08 18:15:48 +0000";
layers = (
{
hints = (
{
horizontal = 1;
place = (525,25);
type = Stem;
},
{
horizontal = 1;
place = (480,20);
type = Stem;
},
{
horizontal = 1;
place = (450,15);
type = Stem;
},
{
place = (-6,12);
type = Stem;
},
{
place = (-12,25);
type = Stem;
}
);
layerId = m01;
shapes = (
{
closed = 1;
nodes = (
(13,400,l),
(13,450,l),
(80,450,l),
(72,491,ls),
(65,525,o),
(35,550,o),
(0,550,cs),
(-35,550,o),
(-65,525,o),
(-72,491,cs),
(-80,450,l),
(-12,450,l),
(-12,400,l)
);
},
{
closed = 1;
nodes = (
(-34,480,l),
(-6,480,l),
(-6,465,l),
(-34,465,l)
);
},
{
closed = 1;
nodes = (
(6,480,l),
(34,480,l),
(34,465,l),
(6,465,l)
);
},
{
closed = 1;
nodes = (
(-6,500,o),
(-12,506,o),
(-12,513,cs),
(-12,519,o),
(-6,525,o),
(1,525,cs),
(7,525,o),
(13,519,o),
(13,513,cs),
(13,506,o),
(7,500,o),
(1,500,cs)
);
}
);
width = 0;
}
);
note = V;
unicode = 73;
},
{
glyphname = J;
lastChange = "2024-02-08 19:44:28 +0000";
layers = (
{
hints = (
{
horizontal = 1;
place = (400,40);
type = Stem;
},
{
horizontal = 1;
place = (300,140);
type = Stem;
},
{
horizontal = 1;
place = (290,110);
type = Stem;
},
{
horizontal = 1;
place = (276,14);
type = Stem;
},
{
horizontal = 1;
place = (200,100);
type = Stem;
},
{
horizontal = 1;
place = (200,40);
type = Stem;
},
{
horizontal = 1;
place = (127,113);
type = Stem;
},
{
place = (134,13);
type = Stem;
},
{
place = (85,13);
type = Stem;
},
{
place = (53,127);
type = Stem;
},
{
place = (-97,150);
type = Stem;
},
{
place = (-180,83);
type = Stem;
}
);
layerId = m01;
shapes = (
{
closed = 1;
nodes = (
(180,127,l),
(180,240,l),
(147,240,l),
(147,290,l),
(132,290,l),
(129,296,o),
(123,300,o),
(117,300,cs),
(113,300,o),
(111,299,o),
(108,298,c),
(117,307,l),
(42,382,l),
(33,393,o),
(19,400,o),
(3,400,cs),
(6,400,l),
(15,440,l),
(-60,440,l),
(-51,400,l),
(-47,400,ls),
(-75,400,o),
(-97,378,o),
(-97,350,cs),
(-97,322,o),
(-75,300,o),
(-47,300,c),
(-75,300,o),
(-97,278,o),
(-97,250,cs),
(-97,222,o),
(-75,200,o),
(-47,200,cs),
(3,200,ls),
(31,200,o),
(53,222,o),
(53,250,cs),
(53,278,o),
(31,300,o),
(3,300,cs),
(26,300,o),
(46,316,o),
(51,337,c),
(98,290,l),
(85,290,l),
(85,240,l),
(53,240,l),
(53,127,l)
);
},
{
closed = 1;
nodes = (
(-97,290,l),
(-97,400,l),
(-118,400,l),
(-109,407,o),
(-102,418,o),
(-102,431,cs),
(-102,451,o),
(-118,467,o),
(-138,467,cs),
(-159,467,o),
(-175,451,o),
(-175,431,cs),
(-175,418,o),
(-168,407,o),
(-159,400,c),
(-180,400,l),
(-180,290,l)
);
},
{
closed = 1;
nodes = (
(98,276,l),
(100,276,l),
(103,270,o),
(109,265,o),
(117,265,cs),
(124,265,o),
(130,270,o),
(133,276,c),
(134,276,l),
(134,240,l),
(98,240,l)
);
},
{
closed = 1;
nodes = (
(101,291,l),
(101,290,l),
(100,290,l)
);
}
);
width = 0;
}
);
note = T;
unicode = 74;
},
{
glyphname = K;
lastChange = "2024-02-08 19:45:58 +0000";
layers = (
{
hints = (
{
horizontal = 1;
place = (385,15);
type = Stem;
},
{
horizontal = 1;
place = (355,15);
type = Stem;
},
{
horizontal = 1;
place = (325,15);
type = Stem;
},
{
horizontal = 1;
place = (200,110);
type = Stem;
},
{
place = (-75,150);
type = Stem;
}
);
layerId = m01;
shapes = (
{
closed = 1;
nodes = (
(75,200,l),
(75,310,l),
(-75,310,l),
(-75,200,l)
);
},
{
closed = 1;
nodes = (
(75,325,l),
(75,340,l),
(-75,340,l),
(-75,325,l)
);
},
{
closed = 1;
nodes = (
(75,355,l),
(75,370,l),
(-75,370,l),
(-75,355,l)
);
},
{
closed = 1;
nodes = (
(75,385,l),
(75,400,l),
(-75,400,l),
(-75,385,l)
);
}
);
width = 0;
}
);
note = W;
unicode = 75;
},
{
glyphname = L;
lastChange = "2024-02-08 19:46:32 +0000";
layers = (
{
hints = (
{
horizontal = 1;
place = (390,60);
type = Stem;
},
{
horizontal = 1;
place = (377,73);
type = Stem;
},
{
horizontal = 1;
place = (345,20);
type = Stem;
},
{
horizontal = 1;
place = (228,73);
type = Stem;
},
{
horizontal = 1;
place = (200,120);
type = Stem;
},
{
place = (134,73);
type = Stem;
},
{
place = (-165,152);
type = Stem;
}
);
layerId = m01;
shapes = (
{
closed = 1;
nodes = (
(40,200,ls),
(109,200,o),
(165,256,o),
(165,325,cs),
(165,346,o),
(160,365,o),
(151,383,c),
(157,379,o),
(163,377,o),
(171,377,cs),
(191,377,o),
(207,393,o),
(207,414,cs),
(207,434,o),
(191,450,o),
(171,450,cs),
(150,450,o),
(134,434,o),
(134,414,cs),
(134,411,o),
(134,409,o),
(135,407,c),
(112,433,o),
(78,450,o),
(40,450,cs),
(-40,450,ls),
(-109,450,o),
(-165,394,o),
(-165,325,cs),
(-165,316,o),
(-164,308,o),
(-163,300,c),
(-165,301,o),
(-168,301,o),
(-170,301,cs),
(-191,301,o),
(-207,285,o),
(-207,265,cs),
(-207,244,o),
(-191,228,o),
(-170,228,cs),
(-156,228,o),
(-144,236,o),
(-138,248,c),
(-115,219,o),
(-80,200,o),
(-40,200,cs)
);
},
{
closed = 1;
nodes = (
(-7,320,o),
(-13,326,o),
(-13,333,cs),
(-13,339,o),
(-7,345,o),
(0,345,cs),
(6,345,o),
(12,339,o),
(12,333,cs),
(12,326,o),
(6,320,o),
(0,320,cs)
);
},
{
closed = 1;
nodes = (
(-7,365,o),
(-13,371,o),
(-13,378,cs),
(-13,384,o),
(-7,390,o),
(0,390,cs),
(6,390,o),
(12,384,o),
(12,378,cs),
(12,371,o),
(6,365,o),
(0,365,cs)
);
}
);
width = 0;
}
);
note = Z;
unicode = 76;
},
{
glyphname = M;
lastChange = "2024-02-08 20:07:48 +0000";
layers = (
{
hints = (
{
horizontal = 1;
place = (100,100);
type = Stem;
},
{
horizontal = 1;
place = (0,25);
type = Stem;
},
{
place = (4,45);
type = Stem;
},
{
place = (-48,45);
type = Stem;
}
);
layerId = m01;
shapes = (
{
closed = 1;
nodes = (
(-3,0,l),
(-3,100,l),
(4,100,l),
(4,0,l),
(74,0,l),
(74,25,l),
(49,25,l),
(49,100,l),
(25,100,ls),
(53,100,o),
(75,122,o),
(75,150,cs),
(75,178,o),
(53,200,o),
(25,200,cs),
(-25,200,ls),
(-53,200,o),
(-75,178,o),
(-75,150,cs),
(-75,122,o),
(-53,100,o),
(-25,100,cs),
(-48,100,l),
(-48,25,l),
(-73,25,l),
(-73,0,l)
);
}
);
width = 0;
}
);
note = U;
unicode = 77;
},
{
glyphname = N;
lastChange = "2024-02-08 20:06:53 +0000";
layers = (
{
hints = (
{
horizontal = 1;
place = (100,100);
type = Stem;
},
{
horizontal = 1;
place = (59,44);
type = Stem;
},
{
horizontal = 1;
place = (59,30);
type = Stem;
},
{
horizontal = 1;
place = (19,40);
type = Stem;
},
{
horizontal = 1;
place = (0,25);
type = Stem;
},
{
place = (41,13);
type = Stem;
},
{
place = (9,14);
type = Stem;
},
{
place = (-22,13);
type = Stem;
},
{
place = (-54,14);
type = Stem;
}
);
layerId = m01;
shapes = (
{
closed = 1;
nodes = (
(-40,0,l),
(-40,19,l),
(-22,19,l),
(-22,0,l),
(-9,0,l),
(-9,59,l),
(-20,59,ls),
(-11,59,o),
(-3,64,o),
(0,72,c),
(4,64,o),
(12,59,o),
(21,59,cs),
(9,59,l),
(9,0,l),
(23,0,l),
(23,19,l),
(41,19,l),
(41,0,l),
(79,0,l),
(79,25,l),
(54,25,l),
(54,59,l),
(43,59,ls),
(55,59,o),
(65,69,o),
(65,81,cs),
(65,93,o),
(55,103,o),
(43,103,cs),
(42,103,l),
(61,110,o),
(75,128,o),
(75,150,cs),
(75,178,o),
(53,200,o),
(25,200,cs),
(-25,200,ls),
(-53,200,o),
(-75,178,o),
(-75,150,cs),
(-75,128,o),
(-61,110,o),
(-42,103,c),
(-55,103,o),
(-64,93,o),
(-64,81,cs),
(-64,69,o),
(-55,59,o),
(-42,59,cs),
(-54,59,l),
(-54,25,l),
(-79,25,l),
(-79,0,l)
);
},
{
closed = 1;
nodes = (
(-2,94,o),
(-5,98,o),
(-9,100,c),
(10,100,l),
(5,98,o),
(2,94,o),
(0,89,c)
);
}
);
width = 0;
}
);
note = R;
unicode = 78;
},
{
glyphname = O;
lastChange = "2024-02-08 18:15:48 +0000";
layers = (
{
hints = (
{
horizontal = 1;
place = (498,52);
type = Stem;
},
{
horizontal = 1;
place = (488,25);
type = Stem;
},
{
horizontal = 1;
place = (450,100);
type = Stem;
},
{
horizontal = 1;
place = (450,23);
type = Stem;
},
{
place = (21,38);
type = Stem;
},
{
place = (-41,100);
type = Stem;
},
{
place = (-41,37);
type = Stem;
}
);
layerId = m01;
shapes = (
{
closed = 1;
nodes = (
(59,450,l),
(59,550,l),
(-41,550,l),
(-41,513,l),
(-60,513,l),
(-60,488,l),
(-41,488,l),
(-41,450,l)
);
},
{
closed = 1;
nodes = (
(2,473,o),
(-4,479,o),
(-4,486,cs),
(-4,492,o),
(2,498,o),
(9,498,cs),
(15,498,o),
(21,492,o),
(21,486,cs),
(21,479,o),
(15,473,o),
(9,473,cs)
);
}
);
width = 0;
}
);
note = Y;
unicode = 79;
},
{
glyphname = P;
lastChange = "2024-02-08 18:15:48 +0000";
layers = (
{
hints = (
{
horizontal = 1;
place = (525,44);
type = Stem;
},
{
horizontal = 1;
place = (525,22);
type = Stem;
},
{
horizontal = 1;
place = (488,25);
type = Stem;
},
{
place = (4,25);
type = Stem;
},
{
place = (2,30);
type = Stem;
},
{
place = (-32,21);
type = Stem;
},
{
place = (-33,22);
type = Stem;
}
);
layerId = m01;
shapes = (
{
closed = 1;
nodes = (
(29,400,l),
(29,451,l),
(51,457,o),
(67,477,o),
(67,500,cs),
(67,509,o),
(65,517,o),
(61,525,c),
(67,525,l),
(67,547,l),
(50,547,l),
(50,569,l),
(32,569,l),
(32,591,l),
(2,591,l),
(2,569,l),
(-16,569,l),
(-16,547,l),
(-33,547,l),
(-33,525,l),
(-27,525,l),
(-29,521,o),
(-30,517,o),
(-31,513,c),
(-67,513,l),
(-67,488,l),
(-32,488,l),
(-27,470,o),
(-13,456,o),
(4,452,c),
(4,400,l)
);
},
{
closed = 1;
nodes = (
(-5,505,o),
(-11,510,o),
(-11,517,cs),
(-11,520,o),
(-10,522,o),
(-8,525,c),
(11,525,l),
(13,522,o),
(14,520,o),
(14,517,cs),
(14,510,o),
(8,505,o),
(2,505,cs)
);
}
);
width = 0;
}
);
note = b;
unicode = 80;
},
{
glyphname = Q;
lastChange = "2024-02-08 18:15:48 +0000";
layers = (
{
hints = (
{
horizontal = 1;
place = (525,25);
type = Stem;
},
{
horizontal = 1;
place = (488,25);
type = Stem;
},
{
horizontal = 1;
place = (400,100);
type = Stem;
},
{
place = (-1,63);
type = Stem;
},
{
place = (-26,25);
type = Stem;
},
{
place = (-63,37);
type = Stem;
}
);
layerId = m01;
shapes = (
{
closed = 1;
nodes = (
(-1,400,l),
(-1,451,l),
(17,456,o),
(31,470,o),
(36,488,c),
(62,488,l),
(62,513,l),
(35,513,l),
(30,534,o),
(10,550,o),
(-13,550,cs),
(-41,550,o),
(-63,528,o),
(-63,500,cs),
(-63,477,o),
(-47,457,o),
(-26,452,c),
(-26,400,l)
);
},
{
closed = 1;
nodes = (
(-20,500,o),
(-26,506,o),
(-26,513,cs),
(-26,519,o),
(-20,525,o),
(-13,525,cs),
(-7,525,o),
(-1,519,o),
(-1,513,cs),
(-1,506,o),
(-7,500,o),
(-13,500,cs)
);
}
);
width = 0;
}
);
note = A;
unicode = 81;
},
{
glyphname = R;
lastChange = "2024-02-08 18:15:48 +0000";
layers = (
{
hints = (
{
horizontal = 1;
place = (575,16);
type = Stem;
},
{
horizontal = 1;
place = (525,25);
type = Stem;
},
{
horizontal = 1;
place = (524,67);
type = Stem;
},
{
horizontal = 1;
place = (524,26);
type = Stem;
},
{
horizontal = 1;
place = (488,25);
type = Stem;
},
{
horizontal = 1;
place = (441,72);
type = Stem;
},
{
horizontal = 1;
place = (441,59);
type = Stem;
},
{
horizontal = 1;
place = (400,31);
type = Stem;
},
{
place = (32,42);
type = Stem;
},
{
place = (-11,25);
type = Stem;
},
{
place = (-74,83);
type = Stem;
}
);
layerId = m01;
shapes = (
{
closed = 1;
nodes = (
(24,400,l),
(31,431,l),
(14,431,l),
(14,441,l),
(72,441,l),
(58,488,l),
(74,488,l),
(74,513,l),
(50,513,l),
(44,534,o),
(24,550,o),
(1,550,cs),
(-1,550,l),
(9,556,o),
(12,569,o),
(6,580,cs),
(0,591,o),
(-13,594,o),
(-24,588,cs),
(-40,579,l),
(-46,593,l),
(-56,587,l),
(-47,575,l),
(-63,566,ls),
(-73,560,o),
(-77,546,o),
(-71,535,cs),
(-65,525,o),
(-51,521,o),
(-40,527,c),
(-43,523,o),
(-46,518,o),
(-47,512,c),
(-69,441,l),
(-11,441,l),
(-11,431,l),
(-28,431,l),
(-21,400,l)
);
},
{
closed = 1;
nodes = (
(13,500,o),
(7,506,o),
(7,513,cs),
(7,519,o),
(13,525,o),
(20,525,cs),
(26,525,o),
(32,519,o),
(32,513,cs),
(32,506,o),
(26,500,o),
(20,500,cs)
);
}
);
width = 0;
}
);
note = J;
unicode = 82;
},
{
glyphname = S;
lastChange = "2024-02-08 19:38:59 +0000";
layers = (
{
hints = (
{
horizontal = 1;
place = (377,23);
type = Stem;
},
{
horizontal = 1;
place = (375,25);
type = Stem;
},
{
horizontal = 1;
place = (268,14);
type = Stem;
},
{
horizontal = 1;
place = (229,35);
type = Stem;
},
{
horizontal = 1;
place = (200,32);
type = Stem;
},
{
horizontal = 1;
place = (119,113);
type = Stem;
},
{
place = (-14.49,111);
type = Stem;
},
{
place = (-85,16);
type = Stem;
},
{
place = (-131,10);
type = Stem;
}
);
layerId = m01;
shapes = (
{
closed = 1;
nodes = (
(-54,119,l),
(-42,232,l),
(-75,232,l),
(-69,268,l),
(-69,282,l),
(-84,282,l),
(-86,286,o),
(-89,289,o),
(-94,291,c),
(-16,375,l),
(-34,200,l),
(116,200,l),
(113,231,l),
(115,230,o),
(118,229,o),
(122,229,cs),
(131,229,o),
(139,237,o),
(139,247,cs),
(139,256,o),
(131,264,o),
(122,264,cs),
(119,264,o),
(117,264,o),
(115,263,c),
(181,329,l),
(111,400,l),
(97,387,l),
(96,400,l),
(-14,400,l),
(-15,388,l),
(-28,400,l),
(-117,303,l),
(-104,291,l),
(-109,290,o),
(-113,287,o),
(-115,282,c),
(-131,282,l),
(-131,268,l),
(-137,232,l),
(-167,232,l),
(-181,119,l)
);
},
{
closed = 1;
nodes = (
(-118,268,l),
(-116,268,l),
(-113,262,o),
(-107,257,o),
(-99,257,cs),
(-92,257,o),
(-86,262,o),
(-83,268,c),
(-82,268,l),
(-88,232,l),
(-124,232,l)
);
},
{
closed = 1;
nodes = (
(98,377,l),
(146,329,l),
(107,290,l)
);
}
);
width = 0;
}
);
note = E;
unicode = 83;
},
{
glyphname = T;
lastChange = "2024-02-08 18:15:48 +0000";
layers = (
{
hints = (
{
horizontal = 1;
place = (543,39);
type = Stem;
},
{
horizontal = 1;
place = (488,25);
type = Stem;
},
{
horizontal = 1;
place = (400,100);
type = Stem;
},
{
place = (-2,75);
type = Stem;
},
{
place = (-2,48);
type = Stem;
},
{
place = (-15,25);
type = Stem;
},
{
place = (-52,25);
type = Stem;
}
);
layerId = m01;
shapes = (
{
closed = 1;
nodes = (
(10,400,l),
(10,451,l),
(28,456,o),
(42,470,o),
(47,488,c),
(73,488,l),
(73,513,l),
(46,513,l),
(43,526,o),
(35,536,o),
(24,543,c),
(33,543,l),
(40,582,l),
(-44,582,l),
(-37,543,l),
(-28,543,l),
(-42,534,o),
(-52,518,o),
(-52,500,cs),
(-52,477,o),
(-36,457,o),
(-15,452,c),
(-15,400,l)
);
},
{
closed = 1;
nodes = (
(-21,500,o),
(-27,506,o),
(-27,513,cs),
(-27,519,o),
(-21,525,o),
(-14,525,cs),
(-8,525,o),
(-2,519,o),
(-2,513,cs),
(-2,506,o),
(-8,500,o),
(-14,500,cs)
);
}
);
width = 0;
}
);
note = M;
unicode = 84;
},
{
glyphname = U;
lastChange = "2024-02-08 18:15:48 +0000";
layers = (
{
hints = (
{
horizontal = 1;
place = (589,8);
type = Stem;
},
{
horizontal = 1;
place = (538,40);
type = Stem;
},
{
horizontal = 1;
place = (525,53);
type = Stem;
},
{
horizontal = 1;
place = (488,25);
type = Stem;
},
{
horizontal = 1;
place = (400,100);
type = Stem;
},
{
place = (-15,8);
type = Stem;
},
{
place = (-23,25);
type = Stem;
},
{
place = (-60,27);
type = Stem;
}
);
layerId = m01;
shapes = (
{
closed = 1;
nodes = (
(2,400,l),
(2,451,l),
(20,456,o),
(34,470,o),
(38,488,c),
(48,488,ls),
(54,488,o),
(60,493,o),
(60,500,cs),
(60,507,o),
(54,513,o),
(48,513,cs),
(38,513,l),
(36,523,o),
(30,531,o),
(22,538,c),
(27,538,l),
(18,578,l),
(-7,578,l),
(-7,583,l),
(-3,580,l),
(2,585,l),
(-1,589,l),
(4,589,l),
(4,597,l),
(-1,597,l),
(2,601,l),
(-3,606,l),
(-7,603,l),
(-7,608,l),
(-15,608,l),
(-15,603,l),
(-19,606,l),
(-24,601,l),
(-21,597,l),
(-26,597,l),
(-26,589,l),
(-21,589,l),
(-24,585,l),
(-19,580,l),
(-15,583,l),
(-15,578,l),
(-39,578,l),
(-48,538,l),
(-42,538,l),
(-53,529,o),
(-60,515,o),
(-60,500,cs),
(-60,477,o),
(-44,457,o),
(-23,452,c),
(-23,400,l)
);
},
{
closed = 1;
nodes = (
(-27,500,o),
(-33,506,o),
(-33,513,cs),
(-33,519,o),
(-27,525,o),
(-20,525,cs),
(-14,525,o),
(-8,519,o),
(-8,513,cs),
(-8,506,o),
(-14,500,o),
(-20,500,cs)
);
}
);
width = 0;
}
);
note = S;
unicode = 85;
},
{
glyphname = V;
lastChange = "2024-02-08 20:04:49 +0000";
layers = (
{
hints = (
{
horizontal = 1;
place = (0,27);
type = Stem;
},
{
place = (16,33);
type = Stem;
},
{
place = (-48,33);
type = Stem;
}
);
layerId = m01;
shapes = (
{
closed = 1;
nodes = (
(109,0,l),
(109,27,l),
(49,27,l),
(49,200,l),
(16,200,l),
(16,0,l)
);
},
{
closed = 1;
nodes = (
(-15,0,l),
(-15,200,l),
(-48,200,l),
(-48,27,l),
(-108,27,l),
(-108,0,l)
);
}
);
width = 1;
}
);
note = L;
unicode = 86;
},
{
glyphname = W;
lastChange = "2024-02-08 18:15:48 +0000";
layers = (
{
hints = (
{
horizontal = 1;
place = (498,25);
type = Stem;
},
{
horizontal = 1;
place = (461,25);
type = Stem;
},
{
horizontal = 1;
place = (400,73);
type = Stem;
},
{
place = (20,63);
type = Stem;
},
{
place = (-5,25);
type = Stem;
}
);
layerId = m01;
shapes = (
{
closed = 1;
nodes = (
(-16,400,l),
(-10,426,l),
(-8,426,o),
(-7,425,o),
(-5,425,c),
(-5,400,l),
(20,400,l),
(20,424,l),
(38,429,o),
(52,443,o),
(57,461,c),
(83,461,l),
(83,486,l),
(56,486,l),
(51,505,o),
(34,520,o),
(14,523,c),
(-54,523,l),
(-84,400,l)
);
},
{
closed = 1;
nodes = (
(6,473,o),
(4,473,o),
(2,474,c),
(8,498,l),
(15,498,o),
(20,492,o),
(20,486,cs),
(20,479,o),
(14,473,o),
(8,473,cs)
);
}
);
width = 0;
}
);
note = D;
unicode = 87;
},
{
glyphname = X;
lastChange = "2024-02-08 20:02:18 +0000";
layers = (
{
hints = (
{
horizontal = 1;
place = (52,148);
type = Stem;
},
{
horizontal = 1;
place = (15,10);
type = Stem;
},
{
horizontal = 1;
place = (0,25);
type = Stem;
},
{
place = (25,31);
type = Stem;
},
{
place = (6,25);
type = Stem;
},
{
place = (6,10);
type = Stem;
},
{
place = (-15,10);
type = Stem;
},
{
place = (-30,25);
type = Stem;
},
{
place = (-55,31);
type = Stem;
}
);
layerId = m01;
shapes = (
{
closed = 1;
nodes = (
(-24,0,l),
(-24,15,l),
(-15,15,l),
(-15,0,l),
(-5,0,l),
(-5,52,l),
(6,52,l),
(6,0,l),
(16,0,l),
(16,15,l),
(25,15,l),
(25,0,l),
(56,0,l),
(56,25,l),
(31,25,l),
(31,52,l),
(75,52,l),
(55,200,l),
(-55,200,l),
(-75,52,l),
(-30,52,l),
(-30,25,l),
(-55,25,l),
(-55,0,l)
);
}
);
width = 0;
}
);
note = F;
unicode = 88;
},
{
glyphname = Y;
lastChange = "2024-02-08 18:15:48 +0000";
layers = (
{
hints = (
{
horizontal = 1;
place = (525,60);
type = Stem;
},
{
horizontal = 1;
place = (488,25);
type = Stem;
},
{
horizontal = 1;
place = (441,144);
type = Stem;
},
{
horizontal = 1;
place = (441,59);
type = Stem;
},
{
place = (43,19);
type = Stem;
},
{
place = (9,10);
type = Stem;
},
{
place = (1,25);
type = Stem;
}
);
layerId = m01;
shapes = (
{
closed = 1;
nodes = (
(26,400,l),
(26,451,l),
(44,456,o),
(58,470,o),
(62,488,c),
(71,488,ls),
(78,488,o),
(84,493,o),
(84,500,cs),
(84,507,o),
(78,513,o),
(71,513,cs),
(62,513,l),
(59,524,o),
(52,535,o),
(42,541,c),
(52,544,o),
(58,552,o),
(58,563,cs),
(58,575,o),
(49,585,o),
(36,585,cs),
(18,585,l),
(20,600,l),
(8,600,l),
(10,585,l),
(-8,585,ls),
(-21,585,o),
(-31,575,o),
(-31,563,cs),
(-31,552,o),
(-24,544,o),
(-14,541,c),
(-24,535,o),
(-31,524,o),
(-34,512,cs),
(-57,441,l),
(1,441,l),
(1,400,l)
);
},
{
closed = 1;
nodes = (
(24,500,o),
(18,506,o),
(18,513,cs),
(18,519,o),
(24,525,o),
(31,525,cs),
(38,525,o),
(43,519,o),
(43,513,cs),
(43,506,o),
(38,500,o),
(31,500,cs)
);
}
);
width = 0;
}
);
note = P;
unicode = 89;
},
{
glyphname = Z;
lastChange = "2024-02-08 20:00:49 +0000";
layers = (
{
hints = (
{
horizontal = 1;
place = (0,25);
type = Stem;
},
{
place = (23,25);
type = Stem;
},
{
place = (-37,25);
type = Stem;
}
);
layerId = m01;
shapes = (
{
closed = 1;
nodes = (
(48,0,l),
(48,200,l),
(23,200,l),
(23,25,l),
(-2,25,l),
(-2,0,l)
);
},
{
closed = 1;
nodes = (
(-12,0,l),
(-12,200,l),
(-37,200,l),
(-37,25,l),
(-62,25,l),
(-62,0,l)
);
}
);
width = 0;
}
);
note = C;
unicode = 90;
},
{
glyphname = a;
lastChange = "2024-02-08 18:15:48 +0000";
layers = (
{
hints = (
{
horizontal = 1;
place = (424,36);
type = Stem;
},
{
horizontal = 1;
place = (357,103);
type = Stem;
},
{
horizontal = 1;
place = (288,35);
type = Stem;
},
{
horizontal = 1;
place = (200,137);
type = Stem;
},
{
place = (125,35);
type = Stem;
},
{
place = (125,10);
type = Stem;
},
{
place = (114,17);
type = Stem;
},
{
place = (-131,17);
type = Stem;
},
{
place = (-135,10);
type = Stem;
},
{
place = (-160,35);
type = Stem;
}
);
layerId = m01;
shapes = (
{
closed = 1;
nodes = (
(66,200,ls),
(104,200,o),
(135,231,o),
(135,268,cs),
(135,277,o),
(133,285,o),
(130,293,c),
(133,290,o),
(138,288,o),
(143,288,cs),
(152,288,o),
(160,296,o),
(160,305,cs),
(160,315,o),
(152,323,o),
(143,323,cs),
(140,323,o),
(138,323,o),
(136,322,c),
(202,388,l),
(185,406,l),
(132,459,l),
(131,458,l),
(131,460,l),
(-131,460,l),
(-131,459,l),
(-202,388,l),
(-184,371,l),
(-135,322,l),
(-137,323,o),
(-140,323,o),
(-142,323,cs),
(-152,323,o),
(-160,315,o),
(-160,305,cs),
(-160,296,o),
(-152,288,o),
(-142,288,cs),
(-138,288,o),
(-134,290,o),
(-130,292,c),
(-133,285,o),
(-135,277,o),
(-135,268,cs),
(-135,231,o),
(-104,200,o),
(-66,200,cs)
);
},
{
closed = 1;
nodes = (
(-125,305,ls),
(-125,311,o),
(-127,315,o),
(-130,318,c),
(-114,335,l),
(-167,388,l),
(-131,424,l),
(-131,357,l),
(-70,357,l),
(-70,337,l),
(-93,336,o),
(-113,323,o),
(-125,304,c)
);
},
{
closed = 1;
nodes = (
(114,322,o),
(94,335,o),
(71,337,c),
(71,357,l),
(131,357,l),
(131,424,l),
(167,388,l),
(114,335,l),
(131,318,l),
(127,315,o),
(125,311,o),
(125,305,cs),
(125,304,l)
);
}
);
width = 0;
}
);
note = f;
unicode = 97;
},
{
glyphname = b;
lastChange = "2024-02-08 19:53:44 +0000";
layers = (
{
hints = (
{
horizontal = 1;
place = (239,14);
type = Stem;
},
{
horizontal = 1;
place = (188,17);
type = Stem;
},
{
horizontal = 1;
place = (126,74);
type = Stem;
},
{
horizontal = 1;
place = (94,12);
type = Stem;
},
{
horizontal = 1;
place = (31,29);
type = Stem;
},
{
horizontal = 1;
place = (18,14);
type = Stem;
},
{
horizontal = 1;
place = (0,74);
type = Stem;
},
{
place = (188,74);
type = Stem;
},
{
place = (99,45);
type = Stem;
},
{
place = (62,74);
type = Stem;
},
{
place = (-7,26);
type = Stem;
},
{
place = (-12,61);
type = Stem;
},
{
place = (-12,32);
type = Stem;
},
{
place = (-19,39);
type = Stem;
},
{
place = (-67,12);
type = Stem;
},
{
place = (-262,74);
type = Stem;
}
);
layerId = m01;
shapes = (
{
closed = 1;
nodes = (
(-109,0,o),
(-66,42,o),
(-63,94,c),
(-18,94,l),
(-16,89,o),
(-12,84,o),
(-7,82,c),
(-7,70,l),
(-16,60,l),
(-12,57,l),
(-12,32,l),
(-19,32,l),
(-19,18,l),
(20,18,l),
(20,31,l),
(49,31,l),
(49,60,l),
(27,60,l),
(62,99,l),
(62,44,o),
(107,0,o),
(162,0,cs),
(217,0,o),
(262,45,o),
(262,100,cs),
(262,155,o),
(217,200,o),
(162,200,cs),
(139,200,o),
(117,192,o),
(100,178,c),
(90,189,l),
(134,239,l),
(144,239,l),
(144,253,l),
(99,253,l),
(99,239,l),
(118,239,l),
(88,205,l),
(27,205,l),
(-3,239,l),
(-37,208,l),
(-35,205,l),
(-67,205,l),
(-67,192,l),
(-89,168,l),
(-107,187,o),
(-133,200,o),
(-162,200,cs),
(-218,200,o),
(-262,155,o),
(-262,100,cs),
(-262,45,o),
(-218,0,o),
(-162,0,cs)
);
},
{
closed = 1;
nodes = (
(-177,74,o),
(-188,86,o),
(-188,100,cs),
(-188,114,o),
(-177,126,o),
(-162,126,cs),
(-152,126,o),
(-143,120,o),
(-139,111,c),
(-143,106,l),
(-162,106,l),
(-162,94,l),
(-137,94,l),
(-140,83,o),
(-150,74,o),
(-162,74,cs)
);
},
{
closed = 1;
nodes = (
(-71,141,o),
(-75,150,o),
(-81,158,c),
(-67,173,l),
(-67,131,l)
);
},
{
closed = 1;
nodes = (
(-55,188,l),
(-19,188,l),
(27,136,l),
(9,116,l),
(7,118,o),
(3,119,o),
(0,119,cs),
(-8,119,o),
(-16,114,o),
(-18,106,c),
(-55,106,l)
);
},
{
closed = 1;
nodes = (
(19,100,ls),
(19,103,o),
(18,105,o),
(17,107,c),
(35,127,l),
(39,122,l),
(19,99,l)
);
},
{
closed = 1;
nodes = (
(42,188,l),
(73,188,l),
(58,171,l)
);
},
{
closed = 1;
nodes = (
(66,162,l),
(82,180,l),
(91,170,l),
(85,164,o),
(80,158,o),
(76,150,c)
);
},
{
closed = 1;
nodes = (
(148,74,o),
(136,86,o),
(136,100,cs),
(136,105,o),
(138,110,o),
(141,114,c),
(160,93,l),
(169,101,l),
(149,122,l),
(153,125,o),
(157,126,o),
(162,126,cs),
(176,126,o),
(188,114,o),
(188,100,cs),
(188,86,o),
(176,74,o),
(162,74,cs)
);
}
);
width = 0;
}
);
note = s;
unicode = 98;
},
{
glyphname = c;
lastChange = "2024-02-08 19:51:37 +0000";
layers = (
{
hints = (
{
horizontal = 1;
place = (45,155);
type = Stem;
},
{
horizontal = 1;
place = (0,27);
type = Stem;
},
{
place = (29,52);
type = Stem;
},
{
place = (-81,52);
type = Stem;
}
);
layerId = m01;
shapes = (
{
closed = 1;
nodes = (
(81,45,l),
(81,200,l),
(9,200,l),
(29,45,l)
);
},
{
closed = 1;
nodes = (
(29,0,l),
(129,0,l),
(129,27,l),
(29,45,l)
);
},
{
closed = 1;
nodes = (
(-29,0,l),
(-29,45,l),
(-129,27,l),
(-129,0,l)
);
},
{
closed = 1;
nodes = (
(-29,45,l),
(-9,200,l),
(-81,200,l),
(-81,45,l)
);
}
);
width = 0;
}
);
note = m;
unicode = 99;
},
{
glyphname = d;
lastChange = "2024-02-08 19:20:30 +0000";
layers = (
{
hints = (
{
horizontal = 1;
place = (365,35);
type = Stem;
},
{
horizontal = 1;
place = (364,36);
type = Stem;
},
{
horizontal = 1;
place = (244,35);
type = Stem;
},
{
horizontal = 1;
place = (229,35);
type = Stem;
},
{
horizontal = 1;
place = (200,200);
type = Stem;
},
{
horizontal = 1;
place = (200,79);
type = Stem;
},
{
horizontal = 1;
place = (200,64);
type = Stem;
},
{
place = (-75,151);
type = Stem;
}
);
layerId = m01;
shapes = (
{
closed = 1;
nodes = (
(93,200,l),
(93,251,l),
(96,247,o),
(101,244,o),
(107,244,cs),
(116,244,o),
(124,252,o),
(124,262,cs),
(124,263,l),
(134,259,l),
(163,329,l),
(93,400,l),
(-92,400,l),
(-163,329,l),
(-96,263,l),
(-98,264,o),
(-100,264,o),
(-103,264,cs),
(-113,264,o),
(-120,256,o),
(-120,246,cs),
(-120,237,o),
(-113,229,o),
(-103,229,cs),
(-99,229,o),
(-95,230,o),
(-92,233,c),
(-92,200,l)
);
},
{
closed = 1;
nodes = (
(-127,329,l),
(-92,365,l),
(-92,294,l)
);
},
{
closed = 1;
nodes = (
(93,364,l),
(134,323,l),
(114,277,l),
(112,279,o),
(109,279,o),
(107,279,cs),
(101,279,o),
(96,277,o),
(93,272,c)
);
}
);
width = 0;
}
);
note = nine;
unicode = 100;
},
{
glyphname = e;
lastChange = "2024-02-08 18:15:48 +0000";
layers = (
{
hints = (
{
horizontal = 1;
place = (531,24);
type = Stem;
},
{
horizontal = 1;
place = (531,8);
type = Stem;
},
{
horizontal = 1;
place = (525,25);
type = Stem;
},
{
horizontal = 1;
place = (488,25);
type = Stem;
},
{
horizontal = 1;
place = (488,12);
type = Stem;
},
{
place = (108,24);
type = Stem;
},
{
place = (108,19);
type = Stem;
},
{
place = (108,8);
type = Stem;
},
{
place = (65,25);
type = Stem;
},
{
place = (-53,45);
type = Stem;
},
{
place = (-95,25);
type = Stem;
}
);
layerId = m01;
shapes = (
{
closed = 1;
nodes = (
(90,399,l),
(90,452,l),
(111,457,o),
(127,477,o),
(127,500,cs),
(127,512,o),
(123,522,o),
(116,531,c),
(119,530,o),
(122,530,o),
(124,531,cs),
(131,534,o),
(134,541,o),
(132,547,cs),
(129,554,o),
(122,557,o),
(116,555,cs),
(109,552,o),
(106,546,o),
(108,539,c),
(99,546,o),
(89,550,o),
(77,550,cs),
(54,550,o),
(34,534,o),
(29,513,c),
(2,513,l),
(2,488,l),
(28,488,l),
(33,470,o),
(47,456,o),
(65,452,c),
(65,399,l)
);
},
{
closed = 1;
nodes = (
(-70,399,l),
(-70,452,l),
(-53,456,o),
(-39,470,o),
(-34,488,c),
(-8,488,l),
(-8,513,l),
(-35,513,l),
(-40,534,o),
(-60,550,o),
(-83,550,cs),
(-111,550,o),
(-133,528,o),
(-133,500,cs),
(-133,477,o),
(-117,457,o),
(-95,452,c),
(-95,399,l)
);
},
{
closed = 1;
nodes = (
(-72,500,o),
(-78,506,o),
(-78,513,cs),
(-78,519,o),
(-72,525,o),
(-65,525,cs),
(-59,525,o),
(-53,519,o),
(-53,513,cs),
(-53,506,o),
(-59,500,o),
(-65,500,cs)
);
},
{
closed = 1;
nodes = (
(89,500,o),
(83,506,o),
(83,513,cs),
(83,519,o),
(89,525,o),
(96,525,cs),
(102,525,o),
(108,519,o),
(108,513,cs),
(108,506,o),
(102,500,o),
(96,500,cs)
);
}
);
width = 0;
}
);
note = k;
unicode = 101;
},
{
glyphname = f;
lastChange = "2024-02-08 19:22:54 +0000";
layers = (
{
hints = (
{
horizontal = 1;
place = (432,50);
type = Stem;
},
{
horizontal = 1;
place = (376,50);
type = Stem;
},
{
horizontal = 1;
place = (300,100);
type = Stem;
},
{
horizontal = 1;
place = (247,50);
type = Stem;
},
{
horizontal = 1;
place = (189,50);
type = Stem;
},
{
place = (147,50);
type = Stem;
},
{
place = (-79,200);
type = Stem;
},
{
place = (-185,50);
type = Stem;
},
{
place = (-196,50);
type = Stem;
}
);
layerId = m01;
shapes = (
{
closed = 1;
nodes = (
(34,181,o),
(44,191,o),
(46,203,c),
(89,214,o),
(121,253,o),
(121,300,cs),
(121,307,l),
(128,303,o),
(137,300,o),
(147,300,cs),
(174,300,o),
(197,322,o),
(197,350,cs),
(197,378,o),
(174,400,o),
(147,400,cs),
(124,400,o),
(104,385,o),
(98,363,c),
(80,386,o),
(52,400,o),
(21,400,cs),
(-10,400,o),
(-38,386,o),
(-56,363,c),
(-62,385,o),
(-82,400,o),
(-104,400,cs),
(-132,400,o),
(-154,378,o),
(-154,350,cs),
(-154,322,o),
(-132,300,o),
(-104,300,cs),
(-95,300,o),
(-86,303,o),
(-79,307,c),
(-79,300,ls),
(-79,253,o),
(-47,214,o),
(-4,203,c),
(-2,191,o),
(8,181,o),
(21,181,cs)
);
},
{
closed = 1;
nodes = (
(-158,376,o),
(-146,387,o),
(-146,401,cs),
(-146,414,o),
(-158,426,o),
(-171,426,cs),
(-185,426,o),
(-196,414,o),
(-196,401,cs),
(-196,387,o),
(-185,376,o),
(-171,376,cs)
);
},
{
closed = 1;
nodes = (
(-147,432,o),
(-135,443,o),
(-135,457,cs),
(-135,471,o),
(-147,482,o),
(-160,482,cs),
(-174,482,o),
(-185,471,o),
(-185,457,cs),
(-185,443,o),
(-174,432,o),
(-160,432,cs)
);
},
{
closed = 1;
nodes = (
(185,189,o),
(197,200,o),
(197,214,cs),
(197,228,o),
(185,239,o),
(172,239,cs),
(158,239,o),
(147,228,o),
(147,214,cs),
(147,200,o),
(158,189,o),
(172,189,cs)
);
},
{
closed = 1;
nodes = (
(185,247,o),
(197,258,o),
(197,272,cs),
(197,286,o),
(185,297,o),
(172,297,cs),
(158,297,o),
(147,286,o),
(147,272,cs),
(147,258,o),
(158,247,o),
(172,247,cs)
);
}
);
width = 1;
}
);
note = o;
unicode = 102;
},
{
glyphname = g;
lastChange = "2024-02-08 19:23:30 +0000";
layers = (
{
hints = (
{
horizontal = 1;
place = (349,51);
type = Stem;
},
{
horizontal = 1;
place = (318,82);
type = Stem;
},
{
horizontal = 1;
place = (296,104);
type = Stem;
},
{
place = (83,35);
type = Stem;
}
);
layerId = m01;
shapes = (
{
closed = 1;
nodes = (
(20,200,l),
(36,318,l),
(48,275,l),
(48,274,l),
(84,258,l),
(83,256,o),
(83,254,o),
(83,252,cs),
(83,242,o),
(91,234,o),
(100,234,cs),
(110,234,o),
(118,242,o),
(118,252,cs),
(118,260,o),
(112,267,o),
(105,268,c),
(110,281,l),
(75,297,l),
(48,400,l),
(-86,400,ls),
(-101,400,o),
(-113,388,o),
(-113,373,cs),
(-113,363,o),
(-107,354,o),
(-99,349,c),
(-117,296,l),
(-73,296,l),
(-104,200,l)
);
}
);
width = 1;
}
);
note = r;
unicode = 103;
},
{
glyphname = h;
lastChange = "2024-02-08 19:25:29 +0000";
layers = (
{
hints = (
{
horizontal = 1;
place = (353,47);
type = Stem;
},
{
horizontal = 1;
place = (274.5,36.5);
type = Stem;
},
{
horizontal = 1;
place = (262,49);
type = Stem;
},
{
horizontal = 1;
place = (163,81);
type = Stem;
},
{
horizontal = 1;
place = (163,57);
type = Stem;
},
{
place = (160,92);
type = Stem;
},
{
place = (160,35);
type = Stem;
},
{
place = (109,143);
type = Stem;
},
{
place = (-31,62);
type = Stem;
},
{
place = (-107,213);
type = Stem;
},
{
place = (-196,7);
type = Stem;
},
{
place = (-252,142);
type = Stem;
},
{
place = (-252,91);
type = Stem;
}
);
layerId = m01;
shapes = (
{
closed = 1;
nodes = (
(-110,82,l),
(-110,163,l),
(109,163,l),
(109,82,l),
(252,82,l),
(252,244,l),
(191,244,l),
(194,247,o),
(195,251,o),
(195,256,cs),
(195,261,o),
(193,266,o),
(189,269,c),
(198,267,l),
(225,353,l),
(102,400,l),
(31,400,l),
(31,431,l),
(-31,431,l),
(-31,400,l),
(-102,400,l),
(-225,353,l),
(-198,267,l),
(-189,269,l),
(-193,266,o),
(-196,261,o),
(-196,256,cs),
(-196,251,o),
(-194,247,o),
(-191,244,c),
(-252,244,l),
(-252,82,l)
);
},
{
closed = 1;
nodes = (
(107,262,l),
(105,311,l),
(-106,311,l),
(-108,262,l)
);
},
{
closed = 1;
nodes = (
(-110,244,l),
(-166,244,l),
(-163,247,o),
(-161,251,o),
(-161,256,cs),
(-161,265,o),
(-167,272,o),
(-176,273,c),
(-169,276,l),
(-186,333,l),
(-103,361,l),
(-104,353,l),
(104,353,l),
(103,361,l),
(186,333,l),
(168,276,l),
(176,273,l),
(167,272,o),
(160,265,o),
(160,256,cs),
(160,251,o),
(162,247,o),
(165,244,c),
(109,244,l),
(109,220,l),
(-110,220,l)
);
}
);
width = 0;
}
);
note = u;
unicode = 104;
},
{
glyphname = i;
lastChange = "2024-02-09 21:29:39 +0000";
layers = (
{
hints = (
{
horizontal = 1;
place = (534,44);
type = Stem;
},
{
horizontal = 1;
place = (534,11);
type = Stem;
},
{
horizontal = 1;
place = (524,54);
type = Stem;
},
{
horizontal = 1;
place = (491,16);
type = Stem;
},
{
horizontal = 1;
place = (400,91);
type = Stem;
},
{
place = (45,32);
type = Stem;
},
{
place = (45,14);
type = Stem;
},
{
place = (12,25);
type = Stem;
}
);
layerId = m01;
shapes = (
{
closed = 1;
nodes = (
(85,400,l),
(59,491,l),
(77,491,l),
(77,507,l),
(55,507,l),
(35,558,l),
(19,558,l),
(30,561,o),
(38,571,o),
(38,585,cs),
(38,599,o),
(26,610,o),
(12,610,cs),
(-2,610,o),
(-14,599,o),
(-14,585,cs),
(-14,571,o),
(-6,561,o),
(5,558,c),
(-10,558,l),
(-60,400,l)
);
},
{
closed = 1;
nodes = (
(20,492,o),
(14,498,o),
(14,505,cs),
(14,511,o),
(20,517,o),
(27,517,cs),
(33,517,o),
(39,511,o),
(39,505,cs),
(39,498,o),
(33,492,o),
(27,492,cs)
);
}
);
width = 1;
}
);
note = z;
unicode = 105;
},
{
glyphname = j;
lastChange = "2024-02-08 19:27:58 +0000";
layers = (
{
hints = (
{
horizontal = 1;
place = (520,35);
type = Stem;
},
{
horizontal = 1;
place = (371,31);
type = Stem;
},
{
horizontal = 1;
place = (369,33);
type = Stem;
},
{
horizontal = 1;
place = (302,100);
type = Stem;
},
{
horizontal = 1;
place = (231,41);
type = Stem;
},
{
horizontal = 1;
place = (231,35);
type = Stem;
},
{
horizontal = 1;
place = (90,182);
type = Stem;
},
{
place = (-23,52);
type = Stem;
},
{
place = (-115,35);
type = Stem;
}
);
layerId = m01;
shapes = (
{
closed = 1;
nodes = (
(118,90,l),
(86,235,l),
(89,233,o),
(93,231,o),
(98,231,cs),
(107,231,o),
(115,239,o),
(115,249,cs),
(115,258,o),
(107,266,o),
(98,266,cs),
(95,266,o),
(93,266,o),
(91,265,c),
(158,331,l),
(78,402,l),
(-69,402,l),
(-122,454,l),
(-69,507,l),
(-86,524,l),
(-82,527,o),
(-80,532,o),
(-80,537,cs),
(-80,547,o),
(-88,555,o),
(-97,555,cs),
(-107,555,o),
(-115,547,o),
(-115,537,cs),
(-115,527,o),
(-107,520,o),
(-97,520,cs),
(-95,520,o),
(-93,520,o),
(-91,521,c),
(-139,472,l),
(-157,454,l),
(-72,371,l),
(-72,302,l),
(-23,302,l),
(-23,272,l),
(-72,272,l),
(-112,90,l)
);
},
{
closed = 1;
nodes = (
(29,302,l),
(78,302,l),
(78,369,l),
(122,331,l),
(69,278,l),
(75,272,l),
(29,272,l)
);
}
);
width = 1;
}
);
note = x;
unicode = 106;
},
{
glyphname = k;
lastChange = "2024-02-08 19:28:57 +0000";
layers = (
{
hints = (
{
horizontal = 1;
place = (379.5,44.5);
type = Stem;
},
{
horizontal = 1;
place = (368,32);
type = Stem;
},
{
horizontal = 1;
place = (336,35);
type = Stem;
},
{
horizontal = 1;
place = (200,200);
type = Stem;
},
{
place = (130,9);
type = Stem;
},
{
place = (115,35);
type = Stem;
},
{
place = (100,35);
type = Stem;
},
{
place = (100,21);
type = Stem;
}
);
layerId = m01;
shapes = (
{
closed = 1;
nodes = (
(109,200,l),
(74,297,l),
(123,323,l),
(116,336,l),
(118,336,ls),
(128,336,o),
(135,344,o),
(135,353,cs),
(135,363,o),
(128,371,o),
(118,371,cs),
(108,371,o),
(100,363,o),
(100,353,cs),
(100,349,o),
(102,345,o),
(105,342,c),
(66,320,l),
(49,368,l),
(122,382,l),
(120,395,l),
(122,392,o),
(126,390,o),
(131,389,c),
(129,380,l),
(138,379,l),
(140,390,l),
(146,393,o),
(150,399,o),
(150,406,cs),
(150,412,o),
(148,417,o),
(144,420,c),
(155,496,l),
(146,498,l),
(135,424,l),
(133,424,ls),
(123,424,o),
(115,416,o),
(115,406,c),
(40,391,l),
(37,400,l),
(-84,400,l),
(-155,200,l)
);
}
);
width = 0;
}
);
note = zero;
unicode = 107;
},
{
glyphname = l;
lastChange = "2024-02-08 19:30:34 +0000";
layers = (
{
hints = (
{
horizontal = 1;
place = (364,36);
type = Stem;
},
{
horizontal = 1;
place = (313,87);
type = Stem;
},
{
horizontal = 1;
place = (200,88);
type = Stem;
},
{
horizontal = 1;
place = (200,36);
type = Stem;
},
{
place = (12,62);
type = Stem;
},
{
place = (-76,150);
type = Stem;
},
{
place = (-76,63);
type = Stem;
},
{
place = (-109,33);
type = Stem;
}
);
layerId = m01;
shapes = (
{
closed = 1;
nodes = (
(74,200,l),
(74,221,l),
(77,215,o),
(83,211,o),
(90,211,cs),
(100,211,o),
(107,219,o),
(107,229,cs),
(107,235,o),
(104,240,o),
(99,243,c),
(144,328,l),
(145,329,l),
(74,400,l),
(-76,400,l),
(-146,329,l),
(-145,328,l),
(-146,328,l),
(-101,243,l),
(-106,240,o),
(-109,235,o),
(-109,229,cs),
(-109,219,o),
(-101,211,o),
(-91,211,cs),
(-85,211,o),
(-79,215,o),
(-76,221,c),
(-76,200,l)
);
},
{
closed = 1;
nodes = (
(-78,241,o),
(-82,244,o),
(-87,246,c),
(-77,251,l),
(-116,324,l),
(-76,364,l),
(-76,236,l)
);
},
{
closed = 1;
nodes = (
(-8,288,o),
(-13,293,o),
(-13,300,cs),
(-13,307,o),
(-8,313,o),
(-1,313,cs),
(6,313,o),
(12,307,o),
(12,300,cs),
(12,293,o),
(6,288,o),
(-1,288,cs)
);
},
{
closed = 1;
nodes = (
(74,364,l),
(114,324,l),
(75,251,l),
(86,246,l),
(81,244,o),
(77,241,o),
(74,236,c)
);
}
);
width = 0;
}
);
note = three;
unicode = 108;
},
{
glyphname = m;
lastChange = "2024-02-08 19:55:50 +0000";
layers = (
{
hints = (
{
horizontal = 1;
place = (0,29);
type = Stem;
},
{
place = (-26,52);
type = Stem;
}
);
layerId = m01;
shapes = (
{
closed = 1;
nodes = (
(-10,0,l),
(-10,143,l),
(10,143,l),
(10,0,l),
(60,0,l),
(60,25,l),
(35,25,l),
(35,143,l),
(45,143,ls),
(62,143,o),
(75,156,o),
(75,173,cs),
(75,200,l),
(-75,200,l),
(-75,173,ls),
(-75,156,o),
(-61,143,o),
(-45,143,cs),
(-35,143,l),
(-35,25,l),
(-60,25,l),
(-60,0,l)
);
}
);
width = 0;
}
);
note = y;
unicode = 109;
},
{
glyphname = n;
lastChange = "2024-02-08 19:54:47 +0000";
layers = (
{
hints = (
{
horizontal = 1;
place = (82,118);
type = Stem;
},
{
horizontal = 1;
place = (0,200);
type = Stem;
},
{
horizontal = 1;
place = (0,25);
type = Stem;
},
{
place = (3,101);
type = Stem;
},
{
place = (-104,100);
type = Stem;
}
);
layerId = m01;
shapes = (
{
closed = 1;
nodes = (
(-6,0,l),
(-2,82,l),
(1,82,l),
(5,0,l),
(137,0,l),
(137,25,l),
(104,25,l),
(104,200,l),
(-104,200,l),
(-104,25,l),
(-137,25,l),
(-137,0,l)
);
}
);
width = 0;
}
);
note = v;
unicode = 110;
},
{
glyphname = o;
lastChange = "2024-02-08 18:39:02 +0000";
layers = (
{
hints = (
{
horizontal = 1;
place = (508,17);
type = Stem;
},
{
horizontal = 1;
place = (450,75);
type = Stem;
},
{
horizontal = 1;
place = (450,33);
type = Stem;
},
{
place = (25,25);
type = Stem;
},
{
place = (-13,25);
type = Stem;
},
{
place = (-51,25);
type = Stem;
}
);
layerId = m01;
shapes = (
{
closed = 1;
nodes = (
(12,400,l),
(12,450,l),
(67,450,ls),
(88,450,o),
(105,467,o),
(105,488,cs),
(105,508,o),
(88,525,o),
(67,525,cs),
(50,525,l),
(50,550,l),
(25,550,l),
(25,525,l),
(-26,525,l),
(-26,550,l),
(-51,550,l),
(-51,525,l),
(-68,525,ls),
(-89,525,o),
(-106,508,o),
(-106,488,cs),
(-106,467,o),
(-89,450,o),
(-68,450,cs),
(-13,450,l),
(-13,400,l)
);
},
{
closed = 1;
nodes = (
(-8,483,o),
(-13,489,o),
(-13,496,cs),
(-13,502,o),
(-8,508,o),
(-1,508,cs),
(6,508,o),
(12,502,o),
(12,496,cs),
(12,489,o),
(6,483,o),
(-1,483,cs)
);
}
);
width = 0;
}
);
note = two;
unicode = 111;
},
{
glyphname = p;
lastChange = "2024-02-08 18:15:48 +0000";
layers = (
{
hints = (
{
horizontal = 1;
place = (527,23);
type = Stem;
},
{
horizontal = 1;
place = (400,150);
type = Stem;
},
{
horizontal = 1;
place = (400,102);
type = Stem;
},
{
place = (-64,28);
type = Stem;
},
{
place = (-142,53);
type = Stem;
}
);
layerId = m01;
shapes = (
{
closed = 1;
nodes = (
(101,400,o),
(141,434,o),
(141,475,cs),
(141,516,o),
(101,550,o),
(-1,550,cs),
(-103,550,o),
(-142,516,o),
(-142,475,cs),
(-142,434,o),
(-103,400,o),
(-1,400,cs)
);
},
{
closed = 1;
nodes = (
(-84,502,o),
(-89,507,o),
(-89,514,cs),
(-89,521,o),
(-84,527,o),
(-77,527,cs),
(-70,527,o),
(-64,521,o),
(-64,514,cs),
(-64,507,o),
(-70,502,o),
(-77,502,cs)
);
},
{
closed = 1;
nodes = (
(-31,502,o),
(-36,507,o),
(-36,514,cs),
(-36,521,o),
(-31,527,o),
(-24,527,cs),
(-17,527,o),
(-11,521,o),
(-11,514,cs),
(-11,507,o),
(-17,502,o),
(-24,502,cs)
);
}
);
width = 0;
}
);
note = five;
unicode = 112;
},
{
glyphname = q;
lastChange = "2024-02-08 18:25:56 +0000";
layers = (
{
hints = (
{
horizontal = 1;
place = (585,23);
type = Stem;
},
{
horizontal = 1;
place = (533,16);
type = Stem;
},
{
place = (-13,23);
type = Stem;
},
{
place = (-49,23);
type = Stem;
}
);
layerId = m01;
shapes = (
{
closed = 1;
nodes = (
(10,400,l),
(10,453,l),
(16,455,ls),
(38,464,o),
(51,487,o),
(47,510,c),
(74,520,l),
(65,544,l),
(37,533,l),
(31,541,o),
(23,546,o),
(14,549,c),
(31,556,l),
(20,587,l),
(4,581,l),
(-6,598,l),
(-27,590,l),
(-25,593,o),
(-24,597,o),
(-26,601,cs),
(-28,607,o),
(-35,611,o),
(-42,608,cs),
(-48,606,o),
(-51,599,o),
(-49,592,cs),
(-48,588,o),
(-44,586,o),
(-41,585,c),
(-62,577,l),
(-59,558,l),
(-74,552,l),
(-62,521,l),
(-45,528,l),
(-52,515,o),
(-54,499,o),
(-49,484,cs),
(-43,468,o),
(-29,457,o),
(-13,454,c),
(-13,400,l)
);
},
{
closed = 1;
nodes = (
(11,508,o),
(6,513,o),
(6,520,cs),
(6,527,o),
(11,533,o),
(18,533,cs),
(25,533,o),
(31,527,o),
(31,520,cs),
(31,513,o),
(25,508,o),
(18,508,cs)
);
}
);
width = 0;
}
);
note = e;
unicode = 113;
},
{
glyphname = r;
lastChange = "2024-02-08 18:15:48 +0000";
layers = (
{
hints = (
{
horizontal = 1;
place = (488,27);
type = Stem;
},
{
horizontal = 1;
place = (472,25);
type = Stem;
},
{
horizontal = 1;
place = (415,48);
type = Stem;
},
{
place = (3,56);
type = Stem;
},
{
place = (-41,100);
type = Stem;
},
{
place = (-41,19);
type = Stem;
}
);
layerId = m01;
shapes = (
{
closed = 1;
nodes = (
(37,415,o),
(59,437,o),
(59,465,cs),
(59,493,o),
(37,515,o),
(9,515,cs),
(-10,515,o),
(-26,505,o),
(-35,489,c),
(-37,494,o),
(-41,497,o),
(-46,497,cs),
(-53,497,o),
(-58,491,o),
(-58,484,cs),
(-58,477,o),
(-53,472,o),
(-46,472,cs),
(-44,472,o),
(-42,472,o),
(-40,473,c),
(-41,470,o),
(-41,468,o),
(-41,465,cs),
(-41,437,o),
(-19,415,o),
(9,415,cs)
);
},
{
closed = 1;
nodes = (
(-17,463,o),
(-22,468,o),
(-22,475,cs),
(-22,482,o),
(-17,488,o),
(-10,488,cs),
(-3,488,o),
(3,482,o),
(3,475,cs),
(3,468,o),
(-3,463,o),
(-10,463,cs)
);
}
);
width = 1;
}
);
note = n;
unicode = 114;
},
{
glyphname = s;
lastChange = "2024-02-08 19:18:23 +0000";
layers = (
{
hints = (
{
horizontal = 1;
place = (366,34);
type = Stem;
},
{
horizontal = 1;
place = (339,61);
type = Stem;
},
{
horizontal = 1;
place = (229,35);
type = Stem;
},
{
horizontal = 1;
place = (200,200);
type = Stem;
},
{
horizontal = 1;
place = (200,64);
type = Stem;
},
{
place = (-213,35);
type = Stem;
}
);
layerId = m01;
shapes = (
{
closed = 1;
nodes = (
(141,200,l),
(141,234,l),
(144,231,o),
(148,229,o),
(153,229,cs),
(163,229,o),
(171,237,o),
(171,247,cs),
(171,256,o),
(163,264,o),
(153,264,cs),
(151,264,o),
(148,264,o),
(146,263,c),
(213,329,l),
(142,400,l),
(141,399,l),
(141,400,l),
(-45,400,l),
(-184,260,l),
(-187,263,o),
(-191,264,o),
(-195,264,cs),
(-205,264,o),
(-213,256,o),
(-213,247,cs),
(-213,237,o),
(-205,229,o),
(-195,229,cs),
(-186,229,o),
(-178,237,o),
(-178,247,cs),
(-178,250,o),
(-179,253,o),
(-180,255,c),
(-167,242,l),
(-70,339,l),
(-130,200,l)
);
},
{
closed = 1;
nodes = (
(141,366,l),
(178,329,l),
(141,293,l)
);
}
);
width = 0;
}
);
note = i;
unicode = 115;
},
{
glyphname = t;
lastChange = "2024-02-08 19:19:02 +0000";
layers = (
{
hints = (
{
horizontal = 1;
place = (512,25);
type = Stem;
},
{
horizontal = 1;
place = (475,25);
type = Stem;
},
{
horizontal = 1;
place = (475,12);
type = Stem;
},
{
place = (30,46);
type = Stem;
},
{
place = (30,14);
type = Stem;
},
{
place = (-31.49,26);
type = Stem;
}
);
layerId = m01;
shapes = (
{
closed = 1;
nodes = (
(-9,400,l),
(-2,437,l),
(20,438,o),
(39,454,o),
(44,475,c),
(76,475,l),
(76,500,l),
(44,500,l),
(38,521,o),
(18,537,o),
(-5,537,cs),
(-28,537,o),
(-48,520,o),
(-53,499,c),
(-76,427,l),
(-29,427,l),
(-34,400,l)
);
},
{
closed = 1;
nodes = (
(11,487,o),
(5,492,o),
(5,499,cs),
(5,506,o),
(11,512,o),
(18,512,cs),
(25,512,o),
(30,506,o),
(30,499,cs),
(30,492,o),
(25,487,o),
(18,487,cs)
);
}
);
width = 0;
}
);
note = q;
unicode = 116;
},
{
glyphname = u;
lastChange = "2024-02-08 18:24:06 +0000";
layers = (
{
hints = (
{
horizontal = 1;
place = (490,20);
type = Stem;
},
{
horizontal = 1;
place = (443,60);
type = Stem;
},
{
place = (-6,71);
type = Stem;
},
{
place = (-18,25);
type = Stem;
}
);
layerId = m01;
shapes = (
{
closed = 1;
nodes = (
(7,400,l),
(7,453,l),
(25,458,o),
(39,472,o),
(43,490,c),
(65,490,l),
(65,510,l),
(44,510,l),
(44,515,o),
(42,519,o),
(40,524,c),
(141,504,l),
(145,520,l),
(57,537,l),
(65,575,l),
(-47,597,l),
(-55,560,l),
(-142,577,l),
(-145,561,l),
(-38,539,l),
(-46,533,o),
(-51,524,o),
(-53,514,c),
(-76,443,l),
(-18,443,l),
(-18,400,l)
);
},
{
closed = 1;
nodes = (
(-25,503,o),
(-31,508,o),
(-31,515,cs),
(-31,522,o),
(-25,528,o),
(-19,528,cs),
(-12,528,o),
(-6,522,o),
(-6,515,cs),
(-6,508,o),
(-12,503,o),
(-19,503,cs)
);
}
);
width = 0;
}
);
note = w;
unicode = 117;
},
{
glyphname = v;
lastChange = "2024-02-08 19:52:45 +0000";
layers = (
{
hints = (
{
horizontal = 1;
place = (146,50);
type = Stem;
},
{
horizontal = 1;
place = (90,50);
type = Stem;
},
{
horizontal = 1;
place = (34,50);
type = Stem;
},
{
horizontal = 1;
place = (0,25);
type = Stem;
},
{
place = (33,50);
type = Stem;
},
{
place = (23,50);
type = Stem;
},
{
place = (19,50);
type = Stem;
},
{
place = (-69,50);
type = Stem;
},
{
place = (-73,50);
type = Stem;
},
{
place = (-83,50);
type = Stem;
}
);
layerId = m01;
shapes = (
{
closed = 1;
nodes = (
(62,146,o),
(73,157,o),
(73,171,cs),
(73,185,o),
(62,196,o),
(48,196,cs),
(34,196,o),
(23,185,o),
(23,171,cs),
(23,157,o),
(34,146,o),
(48,146,cs)
);
},
{
closed = 1;
nodes = (
(-19,0,l),
(-19,14,o),
(-30,25,o),
(-44,25,cs),
(-58,25,o),
(-69,14,o),
(-69,0,c)
);
},
{
closed = 1;
nodes = (
(-34,34,o),
(-23,45,o),
(-23,59,cs),
(-23,73,o),
(-34,84,o),
(-48,84,cs),
(-62,84,o),
(-73,73,o),
(-73,59,cs),
(-73,45,o),
(-62,34,o),
(-48,34,cs)
);
},
{
closed = 1;
nodes = (
(69,0,l),
(69,14,o),
(58,25,o),
(44,25,cs),
(30,25,o),
(19,14,o),
(19,0,c)
);
},
{
closed = 1;
nodes = (
(-44,90,o),
(-33,101,o),
(-33,115,cs),
(-33,129,o),
(-44,140,o),
(-58,140,cs),
(-72,140,o),
(-83,129,o),
(-83,115,cs),
(-83,101,o),
(-72,90,o),
(-58,90,cs)
);
},
{
closed = 1;
nodes = (
(62,34,o),
(73,45,o),
(73,59,cs),
(73,73,o),
(62,84,o),
(48,84,cs),
(34,84,o),
(23,73,o),
(23,59,cs),
(23,45,o),
(34,34,o),
(48,34,cs)
);
},
{
closed = 1;
nodes = (
(-34,146,o),
(-23,157,o),
(-23,171,cs),
(-23,185,o),
(-34,196,o),
(-48,196,cs),
(-62,196,o),
(-73,185,o),
(-73,171,cs),
(-73,157,o),
(-62,146,o),
(-48,146,cs)
);
},
{
closed = 1;
nodes = (
(72,90,o),
(83,101,o),
(83,115,cs),
(83,129,o),
(72,140,o),
(58,140,cs),
(44,140,o),
(33,129,o),
(33,115,cs),
(33,101,o),
(44,90,o),
(58,90,cs)
);
}
);
width = 0;
}
);
note = p;
unicode = 118;
},
{
glyphname = w;
lastChange = "2024-02-08 18:15:48 +0000";
layers = (
{
hints = (
{
horizontal = 1;
place = (483,25);
type = Stem;
},
{
horizontal = 1;
place = (438,25);
type = Stem;
},
{
horizontal = 1;
place = (438,10);
type = Stem;
},
{
place = (48,16);
type = Stem;
},
{
place = (-36,100);
type = Stem;
},
{
place = (-36,59);
type = Stem;
}
);
layerId = m01;
shapes = (
{
closed = 1;
nodes = (
(37,400,o),
(57,416,o),
(62,438,c),
(101,438,l),
(101,463,l),
(62,463,l),
(60,470,o),
(57,477,o),
(52,483,c),
(64,483,l),
(64,508,ls),
(64,536,o),
(42,558,o),
(14,558,cs),
(-14,558,o),
(-36,536,o),
(-36,508,c),
(-101,508,l),
(-101,483,l),
(-24,483,l),
(-31,474,o),
(-36,463,o),
(-36,450,cs),
(-36,422,o),
(-14,400,o),
(14,400,cs)
);
},
{
closed = 1;
nodes = (
(28,448,o),
(23,453,o),
(23,460,cs),
(23,467,o),
(28,473,o),
(35,473,cs),
(42,473,o),
(48,467,o),
(48,460,cs),
(48,453,o),
(42,448,o),
(35,448,cs)
);
}
);
width = 0;
}
);
note = h;
unicode = 119;
},
{
glyphname = x;
lastChange = "2024-02-08 19:50:27 +0000";
layers = (
{
hints = (
{
horizontal = 1;
place = (45,155);
type = Stem;
},
{
horizontal = 1;
place = (45,22);
type = Stem;
},
{
horizontal = 1;
place = (0,45);
type = Stem;
},
{
place = (145,25);
type = Stem;
},
{
place = (64,58);
type = Stem;
},
{
place = (-113,46);
type = Stem;
}
);
layerId = m01;
shapes = (
{
closed = 1;
nodes = (
(-77,0,o),
(-67,10,o),
(-67,23,cs),
(-67,33,o),
(-74,42,o),
(-83,45,c),
(161,45,l),
(152,42,o),
(145,33,o),
(145,23,cs),
(145,10,o),
(155,0,o),
(168,0,cs),
(181,0,o),
(191,10,o),
(191,23,cs),
(191,33,o),
(184,42,o),
(175,45,c),
(196,45,l),
(196,67,l),
(170,67,l),
(170,114,l),
(122,114,l),
(122,200,l),
(64,200,l),
(64,67,l),
(-65,67,l),
(4,200,l),
(-62,200,l),
(-114,100,l),
(-149,135,l),
(-183,102,l),
(-148,67,l),
(-195,67,l),
(-195,45,l),
(-97,45,l),
(-106,42,o),
(-113,33,o),
(-113,23,cs),
(-113,10,o),
(-103,0,o),
(-90,0,cs)
);
}
);
width = 1;
}
);
note = j;
unicode = 120;
},
{
glyphname = y;
lastChange = "2024-02-08 19:19:36 +0000";
layers = (
{
hints = (
{
horizontal = 1;
place = (488,25);
type = Stem;
},
{
horizontal = 1;
place = (400,88);
type = Stem;
},
{
place = (8,25);
type = Stem;
},
{
place = (-29,20);
type = Stem;
}
);
layerId = m01;
shapes = (
{
closed = 1;
nodes = (
(33,400,l),
(33,452,l),
(51,456,o),
(65,470,o),
(69,488,c),
(95,488,l),
(95,513,l),
(69,513,l),
(66,522,l),
(71,523,l),
(64,548,ls),
(56,574,o),
(29,590,o),
(2,582,cs),
(-24,575,o),
(-40,547,o),
(-32,521,c),
(-95,503,l),
(-88,479,l),
(-29,496,l),
(-27,474,o),
(-12,457,o),
(8,452,c),
(8,400,l)
);
},
{
closed = 1;
nodes = (
(-3,488,o),
(-9,494,o),
(-9,501,c),
(14,508,l),
(15,506,o),
(16,503,o),
(16,501,cs),
(16,494,o),
(10,488,o),
(4,488,cs)
);
}
);
width = 0;
}
);
note = t;
unicode = 121;
},
{
glyphname = z;
lastChange = "2024-02-08 19:48:07 +0000";
layers = (
{
hints = (
{
horizontal = 1;
place = (102,100);
type = Stem;
},
{
horizontal = 1;
place = (0,50);
type = Stem;
},
{
place = (6,53);
type = Stem;
},
{
place = (-58,52);
type = Stem;
}
);
layerId = m01;
shapes = (
{
closed = 1;
nodes = (
(-6,0,l),
(-6,102,l),
(6,102,l),
(6,0,l),
(107,0,l),
(107,50,l),
(59,50,l),
(59,102,l),
(131,102,l),
(91,202,l),
(-91,202,l),
(-131,102,l),
(-58,102,l),
(-58,50,l),
(-107,50,l),
(-107,0,l)
);
}
);
width = 0;
}
);
note = g;
unicode = 122;
},
{
glyphname = zero;
lastChange = "2024-02-08 20:43:44 +0000";
layers = (
{
hints = (
{
horizontal = 1;
place = (525,30);
type = Stem;
},
{
horizontal = 1;
place = (430,125);
type = Stem;
},
{
horizontal = 1;
place = (430,73);
type = Stem;
},
{
place = (27,78);
type = Stem;
},
{
place = (-13,25);
type = Stem;
},
{
place = (-106,78);
type = Stem;
}
);
layerId = m01;
shapes = (
{
closed = 1;
nodes = (
(-13,400,l),
(12,400,l),
(12,430,l),
(45,430,ls),
(78,430,o),
(105,457,o),
(105,490,cs),
(105,495,ls),
(105,528,o),
(78,555,o),
(45,555,cs),
(12,555,l),
(12,580,l),
(-13,580,l),
(-13,555,l),
(-46,555,ls),
(-79,555,o),
(-106,528,o),
(-106,495,cs),
(-106,490,ls),
(-106,457,o),
(-79,430,o),
(-46,430,cs),
(-13,430,l)
);
},
{
closed = 1;
nodes = (
(-16,503,o),
(-28,513,o),
(-28,525,c),
(27,525,l),
(27,513,o),
(15,503,o),
(0,503,cs)
);
}
);
width = 0;
}
);
note = eight;
unicode = 48;
},
{
glyphname = one;
lastChange = "2024-02-08 20:43:46 +0000";
layers = (
{
hints = (
{
horizontal = 1;
place = (144,56);
type = Stem;
},
{
horizontal = 1;
place = (0,29);
type = Stem;
},
{
place = (8,40);
type = Stem;
},
{
place = (-48,40);
type = Stem;
}
);
layerId = m01;
shapes = (
{
closed = 1;
nodes = (
(12,400,l),
(12,458,l),
(20,453,o),
(29,450,o),
(39,450,cs),
(67,450,o),
(89,472,o),
(89,500,cs),
(89,528,o),
(67,550,o),
(39,550,cs),
(23,550,o),
(9,542,o),
(0,531,c),
(-10,542,o),
(-24,550,o),
(-40,550,cs),
(-68,550,o),
(-90,528,o),
(-90,500,cs),
(-90,472,o),
(-68,450,o),
(-40,450,cs),
(-30,450,o),
(-21,453,o),
(-13,458,c),
(-13,400,l)
);
},
{
closed = 1;
nodes = (
(-37,488,o),
(-43,494,o),
(-43,501,cs),
(-43,507,o),
(-37,513,o),
(-30,513,cs),
(-24,513,o),
(-18,507,o),
(-18,501,cs),
(-18,494,o),
(-24,488,o),
(-30,488,cs)
);
},
{
closed = 1;
nodes = (
(42,488,o),
(36,494,o),
(36,501,cs),
(36,507,o),
(42,513,o),
(49,513,cs),
(55,513,o),
(61,507,o),
(61,501,cs),
(61,494,o),
(55,488,o),
(49,488,cs)
);
}
);
width = 0;
}
);
note = one;
unicode = 49;
},
{
glyphname = two;
lastChange = "2024-02-08 19:02:03 +0000";
layers = (
{
hints = (
{
horizontal = 1;
place = (508,17);
type = Stem;
},
{
horizontal = 1;
place = (450,75);
type = Stem;
},
{
horizontal = 1;
place = (450,33);
type = Stem;
},
{
place = (25,25);
type = Stem;
},
{
place = (-13,25);
type = Stem;
},
{
place = (-51,25);
type = Stem;
}
);
layerId = m01;
shapes = (
{
closed = 1;
nodes = (
(-15,400,l),
(-15,450,l),
(80,450,l),
(80,487,l),
(135,487,l),
(135,512,l),
(80,512,l),
(80,550,l),
(-135,550,l),
(-135,450,l),
(-40,450,l),
(-40,400,l)
);
},
{
closed = 1;
nodes = (
(13,500,o),
(8,506,o),
(8,513,cs),
(8,519,o),
(13,525,o),
(20,525,cs),
(27,525,o),
(33,519,o),
(33,513,cs),
(33,506,o),
(27,500,o),
(20,500,cs)
);
}
);
width = 0;
}
);
note = two;
unicode = 50;
},
{
glyphname = three;
lastChange = "2024-02-08 19:03:23 +0000";
layers = (
{
hints = (
{
horizontal = 1;
place = (364,36);
type = Stem;
},
{
horizontal = 1;
place = (313,87);
type = Stem;
},
{
horizontal = 1;
place = (200,88);
type = Stem;
},
{
horizontal = 1;
place = (200,36);
type = Stem;
},
{
place = (12,62);
type = Stem;
},
{
place = (-76,150);
type = Stem;
},
{
place = (-76,63);
type = Stem;
},
{
place = (-109,33);
type = Stem;
}
);
layerId = m01;
shapes = (
{
closed = 1;
nodes = (
(-2,400,l),
(-2,426,l),
(32,432,o),
(59,462,o),
(64,499,c),
(94,499,l),
(94,524,l),
(64,524,l),
(59,566,o),
(25,598,o),
(-15,598,cs),
(-59,598,o),
(-95,559,o),
(-95,512,cs),
(-95,468,o),
(-65,432,o),
(-27,426,c),
(-27,400,l)
);
},
{
closed = 1;
nodes = (
(-56,525,o),
(-62,531,o),
(-62,538,cs),
(-62,544,o),
(-56,550,o),
(-49,550,cs),
(-43,550,o),
(-37,544,o),
(-37,538,cs),
(-37,531,o),
(-43,525,o),
(-49,525,cs)
);
}
);
width = 0;
}
);
note = three;
unicode = 51;
},
{
glyphname = four;
lastChange = "2024-02-08 19:04:26 +0000";
layers = (
{
hints = (
{
horizontal = 1;
place = (143,57);
type = Stem;
},
{
horizontal = 1;
place = (0,25);
type = Stem;
},
{
place = (10,25);
type = Stem;
},
{
place = (-35,25);
type = Stem;
}
);
layerId = m01;
shapes = (
{
closed = 1;
nodes = (
(12,400,l),
(12,451,l),
(30,456,o),
(44,470,o),
(49,487,c),
(70,487,l),
(70,508,l),
(50,508,l),
(48,519,o),
(42,529,o),
(34,537,c),
(59,576,l),
(-70,576,l),
(-48,513,l),
(-48,512,l),
(-70,441,l),
(-13,441,l),
(-13,400,l)
);
},
{
closed = 1;
nodes = (
(9,500,o),
(3,506,o),
(3,513,cs),
(3,520,o),
(9,525,o),
(16,525,cs),
(23,525,o),
(28,520,o),
(28,513,cs),
(28,506,o),
(23,500,o),
(16,500,cs)
);
}
);
width = 0;
}
);
note = four;
unicode = 52;
},
{
glyphname = five;
lastChange = "2024-02-08 19:06:09 +0000";
layers = (
{
hints = (
{
horizontal = 1;
place = (527,23);
type = Stem;
},
{
horizontal = 1;
place = (400,150);
type = Stem;
},
{
horizontal = 1;
place = (400,102);
type = Stem;
},
{
place = (-64,28);
type = Stem;
},
{
place = (-142,53);
type = Stem;
}
);
layerId = m01;
shapes = (
{
closed = 1;
nodes = (
(37,400,l),
(37,451,l),
(55,456,o),
(69,470,o),
(73,487,c),
(95,487,l),
(95,508,l),
(74,508,l),
(70,532,o),
(50,550,o),
(25,550,cs),
(16,550,o),
(7,547,o),
(0,543,c),
(-1,550,o),
(-6,555,o),
(-12,556,c),
(-9,562,o),
(-7,569,o),
(-7,577,cs),
(-7,601,o),
(-27,621,o),
(-52,621,cs),
(-76,621,o),
(-96,601,o),
(-96,577,cs),
(-96,552,o),
(-76,532,o),
(-52,532,cs),
(-44,532,o),
(-37,534,o),
(-31,537,c),
(-30,531,o),
(-25,526,o),
(-18,525,c),
(-23,518,o),
(-25,509,o),
(-25,500,cs),
(-25,477,o),
(-9,457,o),
(12,452,c),
(12,400,l)
);
},
{
closed = 1;
nodes = (
(14,500,o),
(8,506,o),
(8,513,cs),
(8,520,o),
(14,525,o),
(20,525,cs),
(27,525,o),
(33,520,o),
(33,513,cs),
(33,506,o),
(27,500,o),
(20,500,cs)
);
}
);
width = 0;
}
);
note = five;
unicode = 53;
},
{
glyphname = six;
lastChange = "2024-02-08 19:07:07 +0000";
layers = (
{
hints = (
{
horizontal = 1;
place = (364,36);
type = Stem;
},
{
horizontal = 1;
place = (215,34);
type = Stem;
},
{
horizontal = 1;
place = (124,125);
type = Stem;
},
{
horizontal = 1;
place = (124,124);
type = Stem;
},
{
place = (-182,364);
type = Stem;
}
);
layerId = m01;
shapes = (
{
closed = 1;
nodes = (
(-6,499,o),
(-12,505,o),
(-12,512,c),
(-12,518,o),
(-6,524,o),
(1,524,c),
(7,524,o),
(13,518,o),
(13,512,c),
(13,505,o),
(7,499,o),
(1,499,c)
);
},
{
closed = 1;
nodes = (
(50,520,o),
(39,537,o),
(23,545,c),
(33,553,o),
(39,564,o),
(39,577,c),
(39,599,o),
(22,616,o),
(0,616,c),
(-22,616,o),
(-39,599,o),
(-39,577,c),
(-39,564,o),
(-33,553,o),
(-23,545,c),
(-39,537,o),
(-50,520,o),
(-50,501,c),
(-50,478,o),
(-34,458,o),
(-12,453,c),
(-12,400,l),
(13,400,l),
(13,453,l),
(34,458,o),
(50,478,o),
(50,501,c)
);
}
);
width = 0;
}
);
note = six;
unicode = 54;
},
{
glyphname = seven;
lastChange = "2024-02-08 19:08:45 +0000";
layers = (
{
hints = (
{
horizontal = 1;
place = (0,29);
type = Stem;
},
{
place = (8,40);
type = Stem;
},
{
place = (-48,40);
type = Stem;
}
);
layerId = m01;
shapes = (
{
closed = 1;
nodes = (
(11,400,l),
(11,435,l),
(73,435,l),
(73,506,l),
(115,506,l),
(115,527,l),
(73,527,l),
(73,551,l),
(54,551,l),
(60,558,o),
(64,567,o),
(64,577,cs),
(64,599,o),
(47,616,o),
(25,616,cs),
(3,616,o),
(-14,599,o),
(-14,577,cs),
(-14,567,o),
(-10,558,o),
(-4,551,c),
(-48,551,l),
(-42,558,o),
(-38,567,o),
(-38,577,cs),
(-38,599,o),
(-55,616,o),
(-77,616,cs),
(-99,616,o),
(-116,599,o),
(-116,577,cs),
(-116,555,o),
(-99,538,o),
(-77,538,c),
(-77,435,l),
(-14,435,l),
(-14,400,l)
);
},
{
closed = 1;
nodes = (
(-43,501,o),
(-49,507,o),
(-49,514,cs),
(-49,520,o),
(-43,526,o),
(-36,526,cs),
(-30,526,o),
(-24,520,o),
(-24,514,cs),
(-24,507,o),
(-30,501,o),
(-36,501,cs)
);
}
);
width = 0;
}
);
note = seven;
unicode = 55;
},
{
glyphname = eight;
lastChange = "2024-02-08 19:09:46 +0000";
layers = (
{
hints = (
{
horizontal = 1;
place = (525,30);
type = Stem;
},
{
horizontal = 1;
place = (430,125);
type = Stem;
},
{
horizontal = 1;
place = (430,73);
type = Stem;
},
{
place = (27,78);
type = Stem;
},
{
place = (-13,25);
type = Stem;
},
{
place = (-106,78);
type = Stem;
}
);
layerId = m01;
shapes = (
{
closed = 1;
nodes = (
(5,400,l),
(5,435,l),
(45,435,l),
(45,494,l),
(60,494,l),
(60,514,l),
(45,514,l),
(45,583,l),
(5,534,l),
(5,583,l),
(-41,527,l),
(-61,527,l),
(-61,435,l),
(-20,435,l),
(-20,400,l)
);
},
{
closed = 1;
nodes = (
(6,482,o),
(0,488,o),
(0,495,cs),
(0,501,o),
(6,507,o),
(13,507,cs),
(19,507,o),
(25,501,o),
(25,495,cs),
(25,488,o),
(19,482,o),
(13,482,cs)
);
}
);
width = 0;
}
);
note = eight;
unicode = 56;
},
{
glyphname = nine;
lastChange = "2024-02-08 19:10:33 +0000";
layers = (
{
layerId = m01;
shapes = (
{
closed = 1;
nodes = (
(12,400,l),
(12,430,l),
(33,435,o),
(48,454,o),
(48,477,cs),
(48,484,o),
(46,492,o),
(43,498,c),
(43,550,l),
(15,523,l),
(10,524,o),
(5,525,o),
(0,525,cs),
(-6,525,o),
(-11,524,o),
(-16,523,c),
(-44,550,l),
(-44,498,l),
(-47,492,o),
(-49,484,o),
(-49,477,cs),
(-49,454,o),
(-34,435,o),
(-13,430,c),
(-13,400,l)
);
},
{
closed = 1;
nodes = (
(-19,483,o),
(-25,489,o),
(-25,496,cs),
(-25,503,o),
(-19,508,o),
(-12,508,cs),
(-6,508,o),
(0,503,o),
(0,496,cs),
(0,489,o),
(-6,483,o),
(-12,483,cs)
);
},
{
closed = 1;
nodes = (
(17,483,o),
(11,489,o),
(11,496,cs),
(11,503,o),
(17,508,o),
(24,508,cs),
(30,508,o),
(36,503,o),
(36,496,cs),
(36,489,o),
(30,483,o),
(24,483,cs)
);
}
);
width = 0;
}
);
unicode = 57;
},
{
glyphname = period;
lastChange = "2024-02-08 19:58:11 +0000";
layers = (
{
hints = (
{
horizontal = 1;
place = (143,57);
type = Stem;
},
{
horizontal = 1;
place = (0,25);
type = Stem;
},
{
place = (10,25);
type = Stem;
},
{
place = (-35,25);
type = Stem;
}
);
layerId = m01;
shapes = (
{
closed = 1;
nodes = (
(-10,0,l),
(-10,143,l),
(10,143,l),
(10,0,l),
(60,0,l),
(60,25,l),
(35,25,l),
(35,143,l),
(45,143,ls),
(62,143,o),
(75,156,o),
(75,173,cs),
(75,200,l),
(-75,200,l),
(-75,173,ls),
(-75,156,o),
(-61,143,o),
(-45,143,cs),
(-35,143,l),
(-35,25,l),
(-60,25,l),
(-60,0,l)
);
}
);
width = 0;
}
);
note = four;
unicode = 46;
},
{
glyphname = comma;
lastChange = "2024-02-08 19:56:50 +0000";
layers = (
{
hints = (
{
horizontal = 1;
place = (144,56);
type = Stem;
},
{
horizontal = 1;
place = (0,29);
type = Stem;
},
{
place = (8,40);
type = Stem;
},
{
place = (-48,40);
type = Stem;
}
);
layerId = m01;
shapes = (
{
closed = 1;
nodes = (
(-8,0,l),
(-8,144,l),
(8,144,l),
(8,0,l),
(59,0,ls),
(67,0,o),
(74,6,o),
(74,15,cs),
(74,23,o),
(67,29,o),
(59,29,cs),
(48,29,l),
(48,200,l),
(-48,200,l),
(-48,29,l),
(-59,29,ls),
(-68,29,o),
(-74,23,o),
(-74,15,cs),
(-74,6,o),
(-68,0,o),
(-59,0,cs)
);
}
);
width = 0;
}
);
note = one;
unicode = 44;
},
{
glyphname = colon;
lastChange = "2024-02-08 18:15:48 +0000";
layers = (
{
hints = (
{
horizontal = 1;
place = (379,43);
type = Stem;
},
{
horizontal = 1;
place = (375,47);
type = Stem;
},
{
horizontal = 1;
place = (309,23);
type = Stem;
},
{
horizontal = 1;
place = (309,11);
type = Stem;
},
{
horizontal = 1;
place = (289,25);
type = Stem;
},
{
horizontal = 1;
place = (282,12);
type = Stem;
},
{
horizontal = 1;
place = (272,150);
type = Stem;
},
{
horizontal = 1;
place = (271,23);
type = Stem;
},
{
horizontal = 1;
place = (199,35);
type = Stem;
},
{
horizontal = 1;
place = (122,150);
type = Stem;
},
{
place = (195,33);
type = Stem;
},
{
place = (-70,240);
type = Stem;
},
{
place = (-163,11);
type = Stem;
},
{
place = (-225.49,48.5);
type = Stem;
},
{
place = (-225.49,48);
type = Stem;
},
{
place = (-225.49,44);
type = Stem;
}
);
layerId = m01;
shapes = (
{
closed = 1;
nodes = (
(95,122,ls),
(136,122,o),
(170,156,o),
(170,197,cs),
(170,205,l),
(192,199,l),
(195,209,l),
(198,203,o),
(204,199,o),
(211,199,cs),
(221,199,o),
(228,207,o),
(228,217,cs),
(228,226,o),
(221,234,o),
(211,234,cs),
(207,234,o),
(204,233,o),
(201,231,c),
(218,295,l),
(192,392,l),
(170,386,l),
(170,422,l),
(-70,422,l),
(-70,386,l),
(-91,392,l),
(-112,314,l),
(-152,314,l),
(-152,307,l),
(-155,315,o),
(-162,320,o),
(-170,320,cs),
(-173,320,o),
(-176,320,o),
(-178,318,c),
(-177,332,l),
(-228,332,l),
(-223,271,l),
(-182,271,l),
(-181,286,l),
(-178,284,o),
(-174,282,o),
(-170,282,cs),
(-162,282,o),
(-155,288,o),
(-152,295,c),
(-152,289,l),
(-93,289,l),
(-70,375,l),
(-70,272,l),
(5,272,ls),
(-36,272,o),
(-70,238,o),
(-70,197,cs),
(-70,156,o),
(-36,122,o),
(5,122,cs)
);
},
{
closed = 1;
nodes = (
(-174,294,o),
(-177,297,o),
(-177,301,cs),
(-177,305,o),
(-174,309,o),
(-170,309,cs),
(-166,309,o),
(-163,305,o),
(-163,301,cs),
(-163,297,o),
(-166,294,o),
(-170,294,cs)
);
},
{
closed = 1;
nodes = (
(163,245,o),
(132,272,o),
(95,272,cs),
(170,272,l),
(170,379,l),
(192,296,l),
(169,209,l)
);
}
);
width = 0;
}
);
note = c;
unicode = 58;
},
{
glyphname = semicolon;
lastChange = "2024-02-08 19:32:51 +0000";
layers = (
{
hints = (
{
horizontal = 1;
place = (364,36);
type = Stem;
},
{
horizontal = 1;
place = (215,34);
type = Stem;
},
{
horizontal = 1;
place = (124,125);
type = Stem;
},
{
horizontal = 1;
place = (124,124);
type = Stem;
},
{
place = (-182,364);
type = Stem;
}
);
layerId = m01;
shapes = (
{
closed = 1;
nodes = (
(140,124,l),
(116,219,l),
(119,216,o),
(123,215,o),
(127,215,cs),
(137,215,o),
(144,223,o),
(144,233,cs),
(144,240,o),
(139,247,o),
(132,249,c),
(182,325,l),
(70,400,l),
(-69,400,l),
(-182,325,l),
(-131,248,l),
(-137,246,o),
(-142,240,o),
(-142,233,cs),
(-142,223,o),
(-134,215,o),
(-124,215,cs),
(-121,215,o),
(-117,216,o),
(-115,218,c),
(-138,124,l)
);
},
{
closed = 1;
nodes = (
(-111,244,o),
(-114,247,o),
(-117,249,c),
(-106,256,l),
(-147,318,l),
(-78,364,l),
(-109,241,l)
);
},
{
closed = 1;
nodes = (
(107,256,l),
(79,364,l),
(148,318,l),
(107,256,l),
(118,248,l),
(115,246,o),
(112,243,o),
(111,239,c)
);
}
);
width = 0;
}
);
note = six;
unicode = 59;
},
{
glyphname = question;
lastChange = "2024-02-09 14:40:30 +0000";
layers = (
{
hints = (
{
horizontal = 1;
place = (69,35);
type = Stem;
},
{
horizontal = 1;
place = (26,15);
type = Stem;
},
{
horizontal = 1;
place = (25,15);
type = Stem;
},
{
horizontal = 1;
place = (0,15);
type = Stem;
},
{
place = (7,68);
type = Stem;
},
{
place = (7,18);
type = Stem;
},
{
place = (-25,18);
type = Stem;
},
{
place = (-75,68);
type = Stem;
}
);
layerId = m01;
shapes = (
{
closed = 1;
nodes = (
(109,0,l),
(109,15,l),
(75,15,l),
(75,26,l),
(109,26,l),
(109,41,l),
(25,41,l),
(25,70,l),
(27,69,o),
(29,69,o),
(31,69,cs),
(40,69,o),
(48,77,o),
(48,87,cs),
(48,96,o),
(40,104,o),
(31,104,cs),
(29,104,o),
(27,104,o),
(25,103,c),
(25,200,l),
(7,200,l),
(7,0,l)
);
},
{
closed = 1;
nodes = (
(-7,0,l),
(-7,200,l),
(-25,200,l),
(-25,103,l),
(-27,104,o),
(-29,104,o),
(-31,104,cs),
(-40,104,o),
(-48,96,o),
(-48,86,cs),
(-48,77,o),
(-40,69,o),
(-31,69,cs),
(-29,69,o),
(-27,69,o),
(-25,70,c),
(-25,40,l),
(-109,40,l),
(-109,25,l),
(-75,25,l),
(-75,15,l),
(-109,15,l),
(-109,0,l)
);
}
);
width = 0;
}
);
note = d;
unicode = 63;
},
{
glyphname = slash;
lastChange = "2024-02-08 19:59:21 +0000";
layers = (
{
hints = (
{
horizontal = 1;
place = (0,29);
type = Stem;
},
{
place = (8,40);
type = Stem;
},
{
place = (-48,40);
type = Stem;
}
);
layerId = m01;
shapes = (
{
closed = 1;
nodes = (
(95,0,ls),
(103,0,o),
(109,6,o),
(109,15,cs),
(109,23,o),
(103,29,o),
(95,29,cs),
(48,29,l),
(48,200,l),
(8,200,l),
(8,0,l)
);
},
{
closed = 1;
nodes = (
(-8,0,l),
(-8,200,l),
(-48,200,l),
(-48,29,l),
(-94,29,ls),
(-103,29,o),
(-109,23,o),
(-109,15,cs),
(-109,6,o),
(-103,0,o),
(-94,0,cs)
);
}
);
width = 0;
}
);
note = seven;
unicode = 47;
},
{
glyphname = bracketleft;
lastChange = "2024-02-08 19:34:31 +0000";
layers = (
{
hints = (
{
horizontal = 1;
place = (365,35);
type = Stem;
},
{
horizontal = 1;
place = (364,36);
type = Stem;
},
{
horizontal = 1;
place = (244,35);
type = Stem;
},
{
horizontal = 1;
place = (229,35);
type = Stem;
},
{
horizontal = 1;
place = (200,200);
type = Stem;
},
{
horizontal = 1;
place = (200,79);
type = Stem;
},
{
horizontal = 1;
place = (200,64);
type = Stem;
},
{
place = (-75,151);
type = Stem;
}
);
layerId = m01;
shapes = (
{
closed = 1;
nodes = (
(-75,200,l),
(76,200,l),
(76,251,l),
(79,247,o),
(84,244,o),
(90,244,cs),
(99,244,o),
(107,252,o),
(107,262,cs),
(107,263,l),
(117,259,l),
(146,329,l),
(76,400,l),
(-75,400,l),
(-146,329,l),
(-79,263,l),
(-81,264,o),
(-83,264,o),
(-86,264,cs),
(-96,264,o),
(-103,256,o),
(-103,246,cs),
(-103,237,o),
(-96,229,o),
(-86,229,cs),
(-82,229,o),
(-78,230,o),
(-75,233,c)
);
},
{
closed = 1;
nodes = (
(-75,294,l),
(-110,329,l),
(-75,365,l)
);
},
{
closed = 1;
nodes = (
(76,364,l),
(117,323,l),
(97,277,l),
(95,279,o),
(92,279,o),
(90,279,cs),
(84,279,o),
(79,277,o),
(76,272,c)
);
}
);
width = 0;
}
);
note = nine;
unicode = 91;
},
{
glyphname = quotesingle;
lastChange = "2024-02-08 20:43:27 +0000";
layers = (
{
hints = (
{
horizontal = 1;
place = (166,34);
type = Stem;
},
{
horizontal = 1;
place = (0,50);
type = Stem;
},
{
place = (12,26);
type = Stem;
},
{
place = (-39,26);
type = Stem;
}
);
layerId = m01;
shapes = (
{
closed = 1;
nodes = (
(-85,0,l),
(-13,0,l),
(-13,166,l),
(12,166,l),
(12,0,l),
(84,0,l),
(84,10,ls),
(84,32,o),
(67,50,o),
(44,50,cs),
(38,50,l),
(38,200,l),
(-39,200,l),
(-39,50,l),
(-45,50,ls),
(-68,50,o),
(-85,32,o),
(-85,10,cs)
);
}
);
width = 0;
}
);
note = period;
unicode = 39;
},
{
glyphname = equal;
lastChange = "2024-02-08 18:20:16 +0000";
layers = (
{
layerId = m01;
shapes = (
{
closed = 1;
nodes = (
(14,0,l),
(144,0,l),
(144,53,ls),
(144,94,o),
(113,128,o),
(73,132,c),
(85,139,o),
(93,152,o),
(93,167,cs),
(93,178,o),
(88,189,o),
(79,196,c),
(51,225,l),
(51,206,l),
(32,225,l),
(32,200,l),
(23,194,o),
(16,184,o),
(15,173,c),
(0,173,l),
(0,160,l),
(15,160,l),
(17,144,o),
(29,132,o),
(44,128,c),
(44,94,l),
(41,99,o),
(36,103,o),
(30,103,cs),
(22,103,o),
(15,96,o),
(15,88,cs),
(15,79,o),
(22,72,o),
(30,72,cs),
(36,72,o),
(41,76,o),
(44,81,c),
(44,27,l),
(14,27,l)
);
},
{
closed = 1;
nodes = (
(35,164,o),
(29,170,o),
(29,177,cs),
(29,183,o),
(35,189,o),
(42,189,cs),
(48,189,o),
(54,183,o),
(54,177,cs),
(54,170,o),
(48,164,o),
(42,164,cs)
);
}
);
width = 144;
}
);
note = hyphen;
unicode = 61;
},
{
glyphname = greater;
lastChange = "2024-02-09 14:41:55 +0000";
layers = (
{
hints = (
{
horizontal = 1;
place = (110,90);
type = Stem;
},
{
horizontal = 1;
place = (0,63);
type = Stem;
},
{
place = (20,83);
type = Stem;
},
{
place = (-103,83);
type = Stem;
}
);
layerId = m01;
shapes = (
{
closed = 1;
nodes = (
(-20,0,l),
(-20,110,l),
(20,110,l),
(20,0,l),
(165,0,l),
(165,63,l),
(103,63,l),
(103,200,l),
(-103,200,l),
(-103,63,l),
(-165,63,l),
(-165,0,l)
);
}
);
width = 0;
}
);
note = a;
unicode = 62;
},
{
glyphname = less;
lastChange = "2024-02-09 14:43:50 +0000";
layers = (
{
hints = (
{
horizontal = 1;
place = (51,25);
type = Stem;
},
{
horizontal = 1;
place = (35,165);
type = Stem;
},
{
horizontal = 1;
place = (0,25);
type = Stem;
},
{
place = (27,48);
type = Stem;
},
{
place = (-75,48);
type = Stem;
}
);
layerId = m01;
shapes = (
{
closed = 1;
nodes = (
(20,0,o),
(36,15,o),
(38,35,c),
(75,35,l),
(75,200,l),
(27,200,l),
(27,65,l),
(20,72,o),
(11,76,o),
(0,76,cs),
(-11,76,o),
(-20,72,o),
(-27,65,c),
(-27,200,l),
(-75,200,l),
(-75,35,l),
(-38,35,l),
(-36,15,o),
(-20,0,o),
(0,0,cs)
);
},
{
closed = 1;
nodes = (
(-7,25,o),
(-13,31,o),
(-13,38,cs),
(-13,45,o),
(-7,51,o),
(0,51,cs),
(7,51,o),
(13,45,o),
(13,38,cs),
(13,31,o),
(7,25,o),
(0,25,cs)
);
}
);
width = 0;
}
);
note = X;
unicode = 60;
},
